<svg id="b5e610fe-6f70-4cb1-a37d-3a94d773e6bf" data-name="Layer 1" xmlns="http://www.w3.org/2000/svg" xmlns:xlink="http://www.w3.org/1999/xlink" viewBox="0 0 100 100"><defs><style>.ed528c0c-9510-4118-95e2-3e7a67787dfd{fill:none;}.f54bb727-d949-4085-959d-dc8334f34c1b{clip-path:url(#af19153b-dacc-4f5b-acd1-46ac167e2534);}.b6d5cdd4-5134-4139-aa06-93dfc6c26049{fill:#fc0e3f;}</style><clipPath id="af19153b-dacc-4f5b-acd1-46ac167e2534"><rect class="ed528c0c-9510-4118-95e2-3e7a67787dfd" width="100" height="100"/></clipPath></defs><g class="f54bb727-d949-4085-959d-dc8334f34c1b"><path d="M50.15,7.65H89.93c5.89,0,9.21,3.32,9.21,9.19V83.4c0,4.47-2.28,7.64-6.23,8.59a15,15,0,0,1-3.41.36q-39.58,0-79.16,0A14.49,14.49,0,0,1,6.93,92,7.91,7.91,0,0,1,.87,84.1q0-34.14,0-68.28A8,8,0,0,1,9.18,7.67c6.59-.06,13.17,0,19.76,0ZM50,24H6.12c-2.37,0-2.51.1-2.51,2.45q0,28.38,0,56.75c0,4.3,2.15,6.4,6.48,6.4q39.92,0,79.82,0c4.25,0,6.44-2.24,6.44-6.5V26.35c0-2.16-.19-2.35-2.33-2.35Zm-.15-2.75H93.61l1.46,0a1.17,1.17,0,0,0,1.29-1.33c0-1.41.06-2.83,0-4.24a5.39,5.39,0,0,0-5.47-5.21c-.44,0-.89,0-1.33,0H10.24c-.49,0-1,0-1.46,0a5.34,5.34,0,0,0-5.12,5.11c-.06,1.15-.06,2.3-.05,3.45,0,2.19.07,2.23,2.22,2.23Z"/><path class="b6d5cdd4-5134-4139-aa06-93dfc6c26049" d="M19.68,69.45c0-4.14,0-8.29,0-12.44a2.59,2.59,0,0,0-2-2.85c-4.41-1.54-6.55-4.88-6.66-9.39-.1-4,2-6.9,5.44-8.74a9.66,9.66,0,0,1,11,1.4c5.44,4.62,4,13.58-2.59,16.5-2.63,1.15-2.8,1.32-2.65,4.24a40.45,40.45,0,0,1,0,5.28c-.14,1.8.4,2.26,2.22,2.28.53,0,1.07,0,1.59,0a1.27,1.27,0,0,1,.2,2.53,9.53,9.53,0,0,1-2.5.2c-1.3,0-1.51.81-1.55,1.82s0,2,1.4,2.09c.75,0,1.5,0,2.25.09s1.48.46,1.48,1.38-.66,1.27-1.51,1.31c-.35,0-.7,0-1.06,0-2.16,0-2.17,0-2.55,2.17a1.29,1.29,0,1,1-2.56-.23c0-2.56,0-5.13,0-7.69ZM21,37.76a7.11,7.11,0,1,0,7.16,7.06A7.23,7.23,0,0,0,21,37.76Z"/><path class="b6d5cdd4-5134-4139-aa06-93dfc6c26049" d="M63.54,53.94H40.88c-1.06,0-2.27.15-2.42-1.37-.1-1,.67-1.4,2.39-1.4H86.43a9.38,9.38,0,0,1,1.06,0,1.34,1.34,0,0,1,0,2.68,8.87,8.87,0,0,1-1.46.06Z"/><path class="b6d5cdd4-5134-4139-aa06-93dfc6c26049" d="M63.68,62.45H41.39a5.7,5.7,0,0,1-2.09-.22,1.18,1.18,0,0,1-.89-1.18,1.2,1.2,0,0,1,.91-1.17,4.36,4.36,0,0,1,1.56-.21H86.51a5.2,5.2,0,0,1,1.31.13,1.21,1.21,0,0,1,1,1.26,1.19,1.19,0,0,1-1,1.24,6.94,6.94,0,0,1-1.58.14Z"/><path class="b6d5cdd4-5134-4139-aa06-93dfc6c26049" d="M63.76,42.67H87.23c.84,0,1.51.32,1.55,1.26s-.58,1.34-1.42,1.43a9.63,9.63,0,0,1-1.2,0H41.35a11,11,0,0,1-1.71-.14,1.23,1.23,0,0,1-1.21-1.32c0-.81.63-1.12,1.34-1.23a9.66,9.66,0,0,1,1.32,0Z"/><path class="b6d5cdd4-5134-4139-aa06-93dfc6c26049" d="M66.94,70.94H47.59a6.42,6.42,0,0,1-1.32-.08,1.25,1.25,0,0,1-1-1.24,1.22,1.22,0,0,1,.84-1.22,3.74,3.74,0,0,1,1.55-.24H86.47a5.28,5.28,0,0,1,1.19.12,1.24,1.24,0,0,1,1.12,1.39,1.26,1.26,0,0,1-1.3,1.24c-.75,0-1.51,0-2.26,0Z"/><path class="b6d5cdd4-5134-4139-aa06-93dfc6c26049" d="M20.94,47.87a3.06,3.06,0,0,1-3.05-3,3,3,0,0,1,3-3,3,3,0,1,1,0,6Z"/></g></svg>