<svg id="b64d39bf-d845-43c3-9a4a-2d02eb22197e" data-name="Layer 1" xmlns="http://www.w3.org/2000/svg" xmlns:xlink="http://www.w3.org/1999/xlink" viewBox="0 0 100 100"><defs><style>.b698e388-8cbb-4ec0-ba30-40c521e5f952{fill:none;}.a05cdf58-8dd4-427c-af70-29a05f5f865d{clip-path:url(#baa9720f-f0b5-4731-b726-46c2e06661fc);}.b77456ae-741d-42ae-847f-831c42c5fc07{fill:#fc0e3f;}</style><clipPath id="baa9720f-f0b5-4731-b726-46c2e06661fc"><rect class="b698e388-8cbb-4ec0-ba30-40c521e5f952" width="100" height="100"/></clipPath></defs><g class="a05cdf58-8dd4-427c-af70-29a05f5f865d"><path d="M84.48,42.26c0,12,0,23.91,0,35.86A4.81,4.81,0,0,1,83,81.8Q74.74,90,66.57,98.22a3.83,3.83,0,0,1-2.91,1.2q-21.22,0-42.43,0a12.51,12.51,0,0,1-2.29-.22c-1.93-.36-3.1-1.79-3.39-4.08a9.93,9.93,0,0,1,0-1.09q0-44.08,0-88.15c0-2.25.67-4.05,2.91-5a5,5,0,0,1,2-.26c19.65,0,39.31,0,59,0a4.68,4.68,0,0,1,5,4.84c0,1,0,2,0,2.92V42.26ZM66.45,95c.6-.55,1.23-1.1,1.82-1.69,4.1-4.09,8.16-8.22,12.32-12.27a5,5,0,0,0,1.58-3.86q0-35.09,0-70.17c0-.52,0-1.05,0-1.58C82,3.64,81.29,3,79.53,2.88c-.53,0-1.06,0-1.58,0H41.22c-6.81,0-13.62,0-20.43,0-2.29,0-2.93.69-3,3,0,.33,0,.65,0,1q0,43.17,0,86.34c0,.61,0,1.22,0,1.82a2.06,2.06,0,0,0,1.77,2,11,11,0,0,0,1.81.12H60.6c.49,0,1,0,1.46,0a1.44,1.44,0,0,0,1.66-1.62c0-1.58,0-3.16,0-4.74a67,67,0,0,1,.17-8.14,4.07,4.07,0,0,1,4.33-3.75c2.19,0,4.37,0,6.56,0,.77,0,1.35.06,1.36,1.06s-.48,1.25-1.36,1.24q-3,0-6.08,0c-2,0-2.51.55-2.52,2.55,0,3.45,0,6.89,0,10.34A.92.92,0,0,0,66.45,95Z"/><path class="b77456ae-741d-42ae-847f-831c42c5fc07" d="M35.48,34.22c0-2.84,0-5.67,0-8.51a1.92,1.92,0,0,1,1.22-2q6.16-3,12.29-6.14a2.06,2.06,0,0,1,2.05,0q6.13,3.11,12.29,6.14a1.87,1.87,0,0,1,1.17,1.91q0,8.51,0,17a1.94,1.94,0,0,1-1.28,2q-6,2.94-12,6a2.48,2.48,0,0,1-2.5,0c-4-2.07-8.11-4.08-12.18-6.08a1.76,1.76,0,0,1-1.1-1.82C35.5,39.89,35.48,37.06,35.48,34.22ZM62,35.29c0-1.91,0-3.81,0-5.71,0-1.74-.58-2.07-2.07-1.18-2.49,1.51-5,3.08-7.45,4.58a2.61,2.61,0,0,0-1.38,2.5c.05,2.22,0,4.45,0,6.68,0,.94-.42,1.15-1.26,1.16s-1.09-.42-1.08-1.2c0-2.22,0-4.45,0-6.68a2.5,2.5,0,0,0-1.22-2.35c-2.59-1.58-5.16-3.19-7.77-4.76-1.29-.78-2-.37-2,1.12,0,3.89,0,7.78,0,11.67a2.27,2.27,0,0,0,1.38,2.22q4.78,2.35,9.56,4.78a2.5,2.5,0,0,0,2.43,0q4.77-2.41,9.56-4.78A2.12,2.12,0,0,0,62,41.24C62,39.26,62,37.27,62,35.29Zm-1-10.16L56.58,23a1.74,1.74,0,0,0-1.64.07c-2.86,1.6-5.72,3.19-8.56,4.83a1,1,0,0,0-.11,1.77c1,.69,2.07,1.26,3.12,1.86a1.23,1.23,0,0,0,1.28-.07Zm-11.12-5.2a2.3,2.3,0,0,0-.71.1c-2.91,1.4-5.83,2.78-8.7,4.25-.74.38-.75,1.13-.19,1.75a2.84,2.84,0,0,0,3.72.59q3.69-2.1,7.33-4.26c.39-.23,1-.37.95-1s-.58-.93-1.11-1.19A2.71,2.71,0,0,0,49.93,19.93Z"/><path class="b77456ae-741d-42ae-847f-831c42c5fc07" d="M50,55.37H69.44c.75,0,1.59-.13,1.64,1.07,0,1-.26,1.39-1.29,1.39q-19.8,0-39.6,0c-.88,0-1.33-.24-1.33-1.24s.48-1.23,1.35-1.23C36.81,55.38,43.41,55.37,50,55.37Z"/><path class="b77456ae-741d-42ae-847f-831c42c5fc07" d="M49.87,66.15H30.18c-1.32,0-1.45-.21-1.28-1.51.07-.55.3-.81.85-.81H69.49c.63,0,1.45-.27,1.58.82s-.13,1.5-1.39,1.5Z"/><path class="b77456ae-741d-42ae-847f-831c42c5fc07" d="M50,72.11H69.6c.69,0,1.41-.1,1.48,1s-.32,1.34-1.33,1.33c-4,0-8.1,0-12.16,0H30.48c-.63,0-1.46.27-1.59-.82s.13-1.45,1.44-1.45Z"/><path class="b77456ae-741d-42ae-847f-831c42c5fc07" d="M42.56,82.7H30.3c-.77,0-1.42,0-1.44-1.09s.56-1.25,1.45-1.24q12.26,0,24.52,0c.85,0,1.39.16,1.39,1.19s-.55,1.16-1.4,1.15C50.74,82.69,46.65,82.7,42.56,82.7Z"/><path d="M49.94,10.56c2.75,0,5.51,0,8.26,0,.83,0,1.27.2,1.26,1.15s-.37,1.2-1.23,1.2c-5.55,0-11.1,0-16.64,0-.91,0-1.23-.36-1.22-1.23s.37-1.13,1.19-1.12C44.35,10.58,47.15,10.56,49.94,10.56Z"/></g></svg>