<svg id="b3ad9759-fdf2-4dc8-88f1-302fc984a2da" data-name="Layer 1" xmlns="http://www.w3.org/2000/svg" xmlns:xlink="http://www.w3.org/1999/xlink" viewBox="0 0 100 100"><defs><style>.e9572df4-4ec5-471b-ada1-32068cb71d37{fill:none;}.f06807ea-9cd1-475e-a74d-931b00c4c0b6{clip-path:url(#b70b9c8d-5ee1-4b91-b7ff-708f0542e380);}.ae4fa928-7e2e-41ab-8966-e83d9c0837c9{fill:#fc0e3f;}</style><clipPath id="b70b9c8d-5ee1-4b91-b7ff-708f0542e380"><rect class="e9572df4-4ec5-471b-ada1-32068cb71d37" width="100" height="100"/></clipPath></defs><g class="f06807ea-9cd1-475e-a74d-931b00c4c0b6"><path class="ae4fa928-7e2e-41ab-8966-e83d9c0837c9" d="M63.8,32.35a3.35,3.35,0,0,1,2.37,2.55,3.62,3.62,0,0,1-.1,1.57c-.37,2.08-.86,4.14-1.18,6.23a7.77,7.77,0,0,0,.59,3.89c.06-.46.1-.78.14-1.11s.07-.65.11-1a3.62,3.62,0,0,1,1.92-3A15.71,15.71,0,0,1,72,40.08a3.32,3.32,0,0,1,2.55.61c1.58,1.14,3.16,2.29,4.69,3.51a2.82,2.82,0,0,1,.24,4.22l-.23.27a6,6,0,0,1,1.23.65,3.93,3.93,0,0,1,1.21,3c.16,1.89.36,3.77.52,5.66a14.47,14.47,0,0,1-.65,5.62c-.72,2.24-1.46,4.47-2.19,6.71A7.8,7.8,0,0,1,76.85,74a21.16,21.16,0,0,1-1.75,1.41,3.88,3.88,0,0,0-1.61,4.11c.32,2.62.52,5.26.75,7.89.06.63-.25,1-.77,1a.85.85,0,0,1-.94-.84c-.23-2.23-.45-4.47-.66-6.7-.08-.9-.23-1.81-.22-2.72a4.61,4.61,0,0,1,1.69-3.6c.79-.67,1.61-1.31,2.41-2a5.57,5.57,0,0,0,1.8-2.51c.84-2.51,1.67-5,2.46-7.54a15.48,15.48,0,0,0,.26-6.14c-.14-1.41-.27-2.83-.41-4.24a5.44,5.44,0,0,0-.11-.81,1.16,1.16,0,0,0-1.14-.92,1.21,1.21,0,0,0-1.19.95c0,.25-.07.51-.12.75a.86.86,0,0,1-.93.75.84.84,0,0,1-.78-.89,3.16,3.16,0,0,1,.87-2.41c.23-.23.3-.33-.08-.5-1-.45-2-1-3-1.44-.6-.29-.76-.23-.8.42-.12,1.75-.22,3.49-.3,5.24a11.09,11.09,0,0,0,0,2.51,10.69,10.69,0,0,0,1.58,3.34c.11.21.26.13.41,0a1.31,1.31,0,0,0,.69-1.1c0-.73.14-1.45.23-2.18A.91.91,0,0,1,76.1,55a.92.92,0,0,1,.8,1.11c-.09.92-.19,1.84-.27,2.77A1.56,1.56,0,0,1,76,60.09c-.57.41-1.11.88-1.69,1.3A.84.84,0,0,1,73,61.17a32.33,32.33,0,0,1-2-3.62A9.69,9.69,0,0,1,70.49,53c.07-1.66.27-3.32.26-5a2.19,2.19,0,0,1,3.3-2c.87.5,1.8.89,2.7,1.32A1.15,1.15,0,0,0,78.34,47,1.12,1.12,0,0,0,78,45.43c-1.36-1-2.74-2.06-4.11-3.09A2.3,2.3,0,0,0,71.52,42c-.82.3-1.65.57-2.48.86A2.33,2.33,0,0,0,67.43,45c-.14,1.67-.32,3.34-.5,5a1.37,1.37,0,0,0,.11.75c.14.29.28.59.4.9A.87.87,0,0,1,67,52.78a.86.86,0,0,1-1.14-.35,9.14,9.14,0,0,1-.57-1.18C64.63,49.52,64,47.77,63.43,46a10.63,10.63,0,0,1,0-5.57c.33-1.5.61-3,.91-4.51a1.43,1.43,0,0,0-.51-1.56,1.25,1.25,0,0,0-1.38-.17,1.55,1.55,0,0,0-.84,1.27q-.55,2.81-1.12,5.63c-.14.73-.29,1.46-.43,2.2a8.14,8.14,0,0,0,.38,4.09c.64,2,1.24,3.93,1.85,5.9,0,.09.06.18.08.26a1,1,0,0,1-.54,1.26c-.5.15-.94-.13-1.14-.74-.26-.78-.5-1.57-.74-2.35-.46-1.47-.9-2.93-1.37-4.39a10.89,10.89,0,0,1,0-5.83c.4-1.86.75-3.72,1.12-5.58a1.47,1.47,0,0,0-1.14-1.82,1.44,1.44,0,0,0-1.73,1.2c-.52,2.53-.94,5.09-1.52,7.61a10.65,10.65,0,0,0,.42,6.22c.72,2,1.32,4,2,6a3.14,3.14,0,0,1,.16.58.86.86,0,0,1-.6,1,.82.82,0,0,1-1-.55c-1-2.91-2-5.79-2.79-8.75a11,11,0,0,1,.26-5.25c.19-.93.37-1.86.52-2.8a1.27,1.27,0,1,0-2.49-.51c-.53,2.41-1.19,4.78-1.57,7.21a6.32,6.32,0,0,0,.23,2.6c.76,2.71,1.54,5.4,2.31,8.1.08.3.18.6.24.9a.87.87,0,1,1-1.69.44c-.21-.67-.39-1.36-.59-2.05-.62-2.17-1.23-4.35-1.87-6.52a9.9,9.9,0,0,1-.13-5.18c.46-2,.88-4,1.36-5.92a3,3,0,0,1,4.35-2.08c.38.19.47.09.51-.28s.09-.43.12-.64a3.52,3.52,0,0,1,2.52-3.08h1.53a3.81,3.81,0,0,1,1.41.77.29.29,0,0,0,.47,0,4.33,4.33,0,0,1,1.29-.77Z"/><path class="ae4fa928-7e2e-41ab-8966-e83d9c0837c9" d="M57,79.5c-.15,1.57-.32,3.26-.49,4.94-.09.93-.18,1.85-.28,2.77a3.29,3.29,0,0,1-.05.44.88.88,0,1,1-1.75-.19c.06-.88.17-1.74.26-2.61.16-1.62.33-3.23.49-4.84a6.45,6.45,0,0,0-.65-3.45c-.47-1-.88-2-1.37-2.92a12.34,12.34,0,0,1-1.34-5.08c-.11-2.09-.24-4.19-.35-6.28a2.83,2.83,0,0,1,0-.65.83.83,0,0,1,.81-.7.81.81,0,0,1,.84.57,2.39,2.39,0,0,1,.11.65c.13,2.22.24,4.44.36,6.65a9.52,9.52,0,0,0,1,3.73c.55,1.15,1.07,2.32,1.62,3.47A8.68,8.68,0,0,1,57,79.5Z"/><path class="ae4fa928-7e2e-41ab-8966-e83d9c0837c9" d="M65.34,75.6c0,.37,0,.75-.1,1.13a.88.88,0,0,1-1.75-.13c.26-3.6-1.08-6.79-2.5-10-.36-.8-.79-1.56-1.2-2.34-.3-.58-.23-1.07.23-1.34s1-.12,1.3.48A31.46,31.46,0,0,1,65.2,74C65.28,74.53,65.29,75.06,65.34,75.6Z"/><path class="ae4fa928-7e2e-41ab-8966-e83d9c0837c9" d="M90.11,40a.89.89,0,0,1-1,1c-.59,0-.8.16-.76.76a.87.87,0,0,1-.79,1,.85.85,0,0,1-.93-.91c0-.64-.23-.9-.89-.86a.86.86,0,0,1-.9-.86.93.93,0,0,1,.87-.89,2.13,2.13,0,0,1,.44,0c.3,0,.43-.14.43-.43a4.09,4.09,0,0,1,.07-.6.82.82,0,0,1,.85-.71.76.76,0,0,1,.83.78c-.06.8.26,1,1,1A.74.74,0,0,1,90.11,40Z"/><path class="ae4fa928-7e2e-41ab-8966-e83d9c0837c9" d="M85.74,50.2a.85.85,0,0,1-.84-.83.83.83,0,0,1,1.65,0A.86.86,0,0,1,85.74,50.2Z"/><path class="ae4fa928-7e2e-41ab-8966-e83d9c0837c9" d="M79.75,37.73a.84.84,0,0,1,0-1.67.83.83,0,0,1,.81.85A.82.82,0,0,1,79.75,37.73Z"/><path d="M49.93,29.36H5.53c-2.21,0-2.3.09-2.3,2.3V83.73c0,.48,0,1,0,1.44a3.48,3.48,0,0,0,3.46,3.31H92.16c3.31,0,4.59-1.27,4.59-4.56V47.81A5.1,5.1,0,0,1,96.9,46a1,1,0,0,1,2,0,5.1,5.1,0,0,1,.18,1.78v36c0,4.69-2.12,6.9-6.8,7.17-.4,0-.8,0-1.2,0H8.74a14.29,14.29,0,0,1-3.68-.42A6.3,6.3,0,0,1,.94,85C1,61.61,1,38.25,1,14.9A5.78,5.78,0,0,1,6.52,9.08c3.91-.1,7.84,0,11.76,0,.79,0,1.5.24,1.51,1.16s-.65,1-1.39,1.18a11.87,11.87,0,0,1-2.15,0c-3.2,0-6.39-.06-9.59.17a3.31,3.31,0,0,0-3.37,3.22c-.08,3.68,0,7.36,0,11,0,.91.48,1.3,1.35,1.3l1.44,0q23.76,0,47.51,0,20.28,0,40.56,0,.72,0,1.44,0a1.1,1.1,0,0,0,1.19-1.21c0-3.68.08-7.36,0-11-.06-2-1.5-3.22-3.56-3.29h-.6c-22.07,0-44.15-.3-66.22-.16a4.39,4.39,0,0,1-1,0,1.07,1.07,0,0,1-1-1.06A1,1,0,0,1,25.2,9.2a4.37,4.37,0,0,1,1.3-.15h66c4,0,6.52,2.43,6.54,6.5,0,7.72,0,15.43,0,23.15a5.91,5.91,0,0,1,0,.6c-.08.69-.32,1.3-1.13,1.3s-1.07-.58-1.13-1.28c0-.32,0-.64,0-1V31.28c0-1.72-.2-1.92-2-1.92Z"/><path class="ae4fa928-7e2e-41ab-8966-e83d9c0837c9" d="M69.19,23.59H51.93a4.28,4.28,0,0,1-4.29-2.66,4.08,4.08,0,0,1,2.71-5.32,7,7,0,0,1,1.89-.24q16.95,0,33.92,0c2,0,3.66.54,4.57,2.45,1.34,2.79-.73,5.76-4,5.78C80.85,23.61,75,23.59,69.19,23.59Zm.18-2.48h16.9c1.78,0,2.55-.52,2.53-1.66s-.84-1.62-2.59-1.62H52.41A6.16,6.16,0,0,0,51,18a1.42,1.42,0,0,0-1.19,1.67A1.42,1.42,0,0,0,51.16,21a11.42,11.42,0,0,0,1.55.06Z"/><path d="M21.76,61.13H31.82c.32,0,.64,0,1,0,.76.06,1.51.24,1.57,1.14s-.69,1.17-1.45,1.27a6,6,0,0,1-.95.06H11.47a7.89,7.89,0,0,1-1.53-.18,1,1,0,0,1-.88-1.13,1,1,0,0,1,.86-1,6.84,6.84,0,0,1,1.42-.14C14.82,61.12,18.29,61.13,21.76,61.13Z"/><path d="M21.7,51.92H11.27c-.36,0-.72,0-1.08,0a1.08,1.08,0,0,1-1.12-1c-.06-.75.41-1.09,1.06-1.21a6.52,6.52,0,0,1,1.08-.06h21c.9,0,2.08-.16,2.11,1.15s-1.16,1.16-2.05,1.17Z"/><path class="ae4fa928-7e2e-41ab-8966-e83d9c0837c9" d="M13.11,23.58A4.24,4.24,0,0,1,9,19.51a4.26,4.26,0,0,1,4.05-4.11,4.3,4.3,0,0,1,4.11,4.07A4.29,4.29,0,0,1,13.11,23.58Zm1.6-4A1.63,1.63,0,0,0,13,17.84a1.6,1.6,0,0,0-1.55,1.74,1.51,1.51,0,0,0,1.75,1.5A1.42,1.42,0,0,0,14.71,19.6Z"/><path d="M32.19,19.43a4,4,0,1,1,4,4.15A4.18,4.18,0,0,1,32.19,19.43Zm2.38-.07A1.62,1.62,0,0,0,36,21.08a1.66,1.66,0,0,0,1.88-1.55,1.67,1.67,0,0,0-3.34-.17Z"/><path class="ae4fa928-7e2e-41ab-8966-e83d9c0837c9" d="M28.72,19.5a4.28,4.28,0,0,1-4.08,4.08,4.1,4.1,0,0,1,0-8.19A4.28,4.28,0,0,1,28.72,19.5Zm-4.06,1.59a1.62,1.62,0,1,0-.05-3.24,1.57,1.57,0,0,0-1.6,1.6A1.52,1.52,0,0,0,24.66,21.09Z"/><path d="M26.39,66.91c1.92,0,3.83,0,5.75,0a5.69,5.69,0,0,1,1.3.14,1.1,1.1,0,0,1,0,2.17,5.94,5.94,0,0,1-1.19.13c-3.83,0-7.66,0-11.49,0-.91,0-2.06.18-2.26-1.17-.13-.87.62-1.26,2.28-1.27Z"/><path d="M28.2,57.68c-1.56,0-3.11,0-4.67,0-.73,0-1.4-.19-1.41-1.1s.63-1.17,1.37-1.18q4.73,0,9.45,0c.74,0,1.4.28,1.41,1.14s-.68,1.15-1.49,1.15Z"/><path d="M13.74,57.68H10.52c-.76,0-1.4-.2-1.45-1.07s.57-1.2,1.32-1.21q3.4,0,6.81,0c.71,0,1.29.37,1.29,1.14s-.63,1.13-1.4,1.13Z"/><path d="M12,69.37a7.2,7.2,0,0,1-2-.15,1.12,1.12,0,0,1-.88-1.14,1,1,0,0,1,.87-1,9.82,9.82,0,0,1,4,0,1,1,0,0,1,.87,1A1.07,1.07,0,0,1,14,69.2,7.21,7.21,0,0,1,12,69.37Z"/></g></svg>