<svg id="acc66dfb-186f-4afd-8610-0ff4dfd00cf4" data-name="Layer 1" xmlns="http://www.w3.org/2000/svg" xmlns:xlink="http://www.w3.org/1999/xlink" viewBox="0 0 100 100"><defs><style>.ee9b1bd5-e8c0-48b5-8f02-584e7a85167e{fill:none;}.a710a101-c385-4089-872e-51b1c062e90c{clip-path:url(#afe87d46-318e-4161-9d49-db88a731e633);}.afd1a614-94e7-4c38-ba19-66a06220033f{fill:#fc0e3f;}</style><clipPath id="afe87d46-318e-4161-9d49-db88a731e633"><rect class="ee9b1bd5-e8c0-48b5-8f02-584e7a85167e" width="100" height="100"/></clipPath></defs><g class="a710a101-c385-4089-872e-51b1c062e90c"><path d="M50.08.85q23.25,0,46.51,0c2.4,0,2.55.15,2.55,2.54V86.64c0,2.37-.16,2.52-2.57,2.53-2.14,0-4.29,0-6.43,0a2.58,2.58,0,0,0-2.27,1.18A10.1,10.1,0,0,0,86,96.74c0,2-.32,2.4-2.37,2.4q-10.47,0-20.94,0c-2,0-2.41-.45-2.44-2.43,0-1.28,0-2.57-.07-3.85-.19-2.67-1.36-3.72-4-3.72l-51.91,0c-.51,0-1,0-1.54,0-1.19,0-1.72-.57-1.78-1.69,0-.47,0-1,0-1.42V3.31C.89,1.15,1.19.85,3.31.85Q26.69.84,50.08.85ZM59.9,73.28l.33,0v-2c0-7.49,0-15,0-22.48,0-2.86,1.77-4.87,4.29-5,3-.15,5,1.79,5,4.91s0,6.43,0,9.64c0,1.78.15,1.93,1.88,1.91a3.67,3.67,0,0,1,2,.41,2.69,2.69,0,0,0,2.8,0,3.82,3.82,0,0,1,3.48-.09,3.74,3.74,0,0,0,3.31,0,4.45,4.45,0,0,1,6.09,3,7.5,7.5,0,0,1,.24,2.16q0,9.51,0,19c0,1.49.24,1.73,1.71,1.75s2.74,0,4.11,0c.92,0,1.31-.41,1.31-1.32q0-10.48,0-21c0-1-.47-1.36-1.42-1.35a7.86,7.86,0,0,1-2.42-.15,1.23,1.23,0,0,1-.95-1.35,1.16,1.16,0,0,1,1.08-1.1,13.23,13.23,0,0,1,1.54-.07c2.08,0,2.17-.09,2.17-2.18V18.83c0-2.1,0-2.17-2.16-2.18H5.78c-2.17,0-2.26.1-2.26,2.26q0,19.45,0,38.93c0,2.2.15,2.35,2.32,2.35H53.38c.47,0,.94,0,1.41,0,.76,0,1.35.32,1.4,1.19s-.54,1.29-1.34,1.39a15.22,15.22,0,0,1-1.79.07H5.77c-2.1,0-2.25.14-2.25,2.28q0,9.43,0,18.89c0,2.39.07,2.46,2.45,2.46H52.61c.56,0,1.12,0,1.67,0s1.25.37,1.65-.29-.09-1.19-.45-1.73c-2.61-3.91-5.2-7.85-7.84-11.76A1.9,1.9,0,0,1,47.92,70a6.38,6.38,0,0,1,10,.45C58.59,71.39,59.23,72.34,59.9,73.28ZM49.83,14h44c.43,0,.85,0,1.28,0a1.37,1.37,0,0,0,1.53-1.63c-.23-2.49-.07-5-.11-7.45,0-1-.44-1.42-1.4-1.38-.47,0-.94,0-1.41,0H15c-3.26,0-6.51,0-9.77,0-1.42,0-1.73.33-1.74,1.76,0,2.1,0,4.2,0,6.3,0,2.32.09,2.41,2.37,2.41ZM62.89,63.31V77.19c0,.82,0,1.71-1,2s-1.39-.45-1.85-1.07c-1.44-2-2.86-3.95-4.29-5.94a3.45,3.45,0,0,0-3.18-1.56c-.74,0-1.53.06-1.92.79s.17,1.31.54,1.87c3,4.46,5.88,8.95,8.92,13.35,1.76,2.53,3.15,5.09,2.76,8.31-.11,1,.43,1.5,1.46,1.5H82c.89,0,1.38-.38,1.35-1.31a9.05,9.05,0,0,1,2-5.7,6,6,0,0,0,1.3-3.56q0-10.27,0-20.56c0-1.53-.75-2.38-1.93-2.39s-1.9.79-2,2.35c0,.81,0,1.62,0,2.44s-.26,1.58-1.26,1.6-1.29-.73-1.35-1.55,0-1.63,0-2.44c-.06-1.59-.71-2.4-1.9-2.41s-1.86.81-1.92,2.38c0,.81,0,1.63-.11,2.43s-.32,1.69-1.43,1.58-1.1-.91-1.13-1.72a13.77,13.77,0,0,0-.14-2.94c-.28-1.06-.83-1.81-2-1.71s-1.65,1-1.75,2c-.07.68,0,1.37,0,2.05,0,1.66-.42,2.41-1.37,2.31C66.69,69.16,66.86,68,66.86,67c0-5.83,0-11.65,0-17.48a4.51,4.51,0,0,0-.25-1.89,1.69,1.69,0,0,0-1.68-1.15,1.71,1.71,0,0,0-1.71,1.11,4.92,4.92,0,0,0-.33,2Q62.9,56.44,62.89,63.31Z"/><path class="afd1a614-94e7-4c38-ba19-66a06220033f" d="M88.1,89.74a4.65,4.65,0,0,1,.28-.7,14.88,14.88,0,0,0,.85-3,8.42,8.42,0,0,0,.07-1,1.47,1.47,0,0,1,0-.36q0-9.48,0-19a7.5,7.5,0,0,0-.24-2.16,4.45,4.45,0,0,0-6.09-3,3.74,3.74,0,0,1-3.31,0,3.82,3.82,0,0,0-3.48.09,2.69,2.69,0,0,1-2.8,0,3.67,3.67,0,0,0-2-.41c-1.73,0-1.88-.13-1.88-1.91,0-3.21,0-6.42,0-9.64s-2-5.06-5-4.91c-2.52.13-4.29,2.14-4.29,5,0,7.49,0,15,0,22.48v2l-.33,0c-.67-.94-1.31-1.89-2-2.8a6.38,6.38,0,0,0-10-.45,1.9,1.9,0,0,0-.28,2.72c2.64,3.91,5.23,7.85,7.84,11.76.14.22.31.43.43.65a6.12,6.12,0,0,0,.41.48,8.64,8.64,0,0,1,1,1.15c.51.7.92,1.46,1.45,2.14a4.61,4.61,0,0,1,.58.92,5.93,5.93,0,0,1,.34,1.09,5.59,5.59,0,0,1,.45,1.93c.09,1.28.05,2.57.07,3.85,0,2,.45,2.42,2.44,2.43q10.47,0,20.94,0c2,0,2.42-.36,2.37-2.4a10.1,10.1,0,0,1,1.89-6.4c0-.07.1-.12.15-.18A3.1,3.1,0,0,1,88.1,89.74Zm-1.48-3.86a6,6,0,0,1-1.3,3.56,9.05,9.05,0,0,0-2,5.7c0,.93-.46,1.31-1.35,1.31H64.36c-1,0-1.57-.51-1.46-1.5.39-3.22-1-5.78-2.76-8.31-3-4.4-6-8.89-8.92-13.35-.37-.56-.92-1.14-.54-1.87s1.18-.75,1.92-.79a3.45,3.45,0,0,1,3.18,1.56c1.43,2,2.85,4,4.29,5.94.46.62.91,1.34,1.85,1.07s1-1.19,1-2V63.31q0-6.87,0-13.75a4.92,4.92,0,0,1,.33-2,1.71,1.71,0,0,1,1.71-1.11,1.69,1.69,0,0,1,1.68,1.15,4.51,4.51,0,0,1,.25,1.89c0,5.83,0,11.65,0,17.48,0,1-.17,2.2,1.31,2.36,1,.1,1.36-.65,1.37-2.31,0-.68,0-1.37,0-2.05.1-1.07.53-1.93,1.75-2s1.77.65,2,1.71a13.77,13.77,0,0,1,.14,2.94c0,.81.11,1.62,1.13,1.72s1.34-.72,1.43-1.58.08-1.62.11-2.43c.06-1.57.71-2.38,1.92-2.38s1.84.82,1.9,2.41c0,.81,0,1.63,0,2.44s.34,1.57,1.35,1.55,1.24-.75,1.26-1.6,0-1.63,0-2.44c.1-1.56.81-2.36,2-2.35s1.92.86,1.93,2.39Q86.66,75.6,86.62,85.88Z"/><path class="afd1a614-94e7-4c38-ba19-66a06220033f" d="M50.06,20.64H90c2.31,0,2.6.27,2.6,2.56q0,15.23,0,30.46c0,2.25-.33,2.57-2.62,2.57H76a7.22,7.22,0,0,1-1.4-.1,1.2,1.2,0,0,1-1.06-1.26,1.14,1.14,0,0,1,1-1.17,7,7,0,0,1,1.52-.13c4,0,8,0,12.08,0,1.55,0,1.83-.27,1.83-1.78,0-9,0-17.9,0-26.86,0-1.14-.45-1.68-1.6-1.62-.34,0-.68,0-1,0H11.93c-1.46,0-1.74.3-1.75,1.74,0,2.1,0,4.2,0,6.3V51c0,2.45.11,2.56,2.52,2.56H53.42a5.59,5.59,0,0,1,1.91.17,1.15,1.15,0,0,1,.88,1.12,1.09,1.09,0,0,1-.92,1.21,5.93,5.93,0,0,1-1.39.16H9.82c-2,0-2.31-.37-2.31-2.34q0-15.48,0-31c0-2,.32-2.28,2.33-2.28Q30,20.63,50.06,20.64Z"/><path class="afd1a614-94e7-4c38-ba19-66a06220033f" d="M45.41,30.55c.25.1.65.24,1,.43L58,36.78c.69.34,1.46.65,1.49,1.59s-.8,1.34-1.52,1.7c-3.82,1.93-7.64,3.86-11.48,5.75-1.88.92-2.76.37-2.78-1.72q0-5.72,0-11.44C43.76,31.19,44.27,30.52,45.41,30.55Zm1.86,3.94c-.73.1-.83.62-.83,1.21,0,1.75,0,3.5,0,5.25,0,1.29.51,1.6,1.71,1q2.7-1.3,5.37-2.7c1-.54,1-1.17-.05-1.73-1.82-.95-3.66-1.85-5.49-2.76C47.76,34.67,47.52,34.59,47.27,34.49Z"/><path d="M32,73.35h8.85a3.39,3.39,0,0,1,1.51.22,1.22,1.22,0,0,1,0,2.23,3.26,3.26,0,0,1-1.51.22c-5.9,0-11.8,0-17.7,0-1,0-2.33.14-2.33-1.32s1.31-1.32,2.32-1.33C26.08,73.34,29,73.35,32,73.35Z"/><path d="M31.77,69.38H22.92a5.36,5.36,0,0,1-1.27-.11,1.11,1.11,0,0,1-.88-1.13A1.08,1.08,0,0,1,21.56,67a5.47,5.47,0,0,1,1.51-.23c5.9,0,11.8,0,17.7,0a5.77,5.77,0,0,1,1,.09c.76.14,1.3.54,1.26,1.36s-.62,1.17-1.4,1.2c-.51,0-1,0-1.54,0Z"/><path d="M32,80h9.11c.94,0,1.94,0,2,1.27s-.95,1.35-1.83,1.36q-9.3,0-18.6,0c-.87,0-1.86-.19-1.84-1.33s1-1.31,2-1.31c3.08,0,6.16,0,9.24,0Z"/><path d="M13.67,76.05a17.28,17.28,0,0,1-1.8-.14,1.25,1.25,0,0,1,0-2.46,13.1,13.1,0,0,1,3.7,0,1.15,1.15,0,0,1,1,1.26,1.16,1.16,0,0,1-1,1.25A15.87,15.87,0,0,1,13.67,76.05Z"/><path d="M13.74,69.35c-.55,0-1.11,0-1.66,0a1.17,1.17,0,0,1-1.2-1.12,1.19,1.19,0,0,1,1.06-1.37,9.6,9.6,0,0,1,3.7,0,1.24,1.24,0,0,1-.1,2.46,15.42,15.42,0,0,1-1.8,0Z"/><path d="M13.82,80c.56,0,1.12,0,1.67,0a1.15,1.15,0,0,1,1.15,1.15,1.13,1.13,0,0,1-1,1.31,9.35,9.35,0,0,1-3.69,0,1.25,1.25,0,0,1,.17-2.5c.55,0,1.11,0,1.66,0Z"/><path d="M17.82,10a2.69,2.69,0,0,1-1.37-.21,1.17,1.17,0,0,1-.6-1.4c.29-1,1.17-1,2-1s1.67,0,2.05.92a1.16,1.16,0,0,1-.45,1.46A2.85,2.85,0,0,1,17.82,10Z"/><path d="M26.07,10c-.59,0-1.22.08-1.67-.44a1.18,1.18,0,0,1,0-1.73,3.15,3.15,0,0,1,3.38,0,1.19,1.19,0,0,1,.05,1.73C27.4,10.11,26.71,10,26.07,10Z"/><path d="M9.66,10A3,3,0,0,1,8.28,9.8a1.12,1.12,0,0,1-.73-1.09,1.08,1.08,0,0,1,.76-1.07,4,4,0,0,1,2.14-.15c.75.16,1.31.46,1.26,1.32S11,9.9,10.29,10C10.08,10,9.87,10,9.66,10Z"/></g></svg>