<svg id="a1de3223-440d-4178-aacd-91ee6a31957f" data-name="Layer 1" xmlns="http://www.w3.org/2000/svg" xmlns:xlink="http://www.w3.org/1999/xlink" viewBox="0 0 100 100"><defs><style>.ebb6c2db-44d9-4f21-bd16-b13348ee5f78{fill:none;}.fc80c5df-88b3-4393-a889-dc2e733cda79{clip-path:url(#b51a8aab-b875-476d-8262-ac9be77f52a4);}.acf204e8-2608-420d-82d3-5b7d5c3bfa8d{fill:#fc0e3f;}</style><clipPath id="b51a8aab-b875-476d-8262-ac9be77f52a4"><rect class="ebb6c2db-44d9-4f21-bd16-b13348ee5f78" width="100" height="100"/></clipPath></defs><g class="fc80c5df-88b3-4393-a889-dc2e733cda79"><path d="M49.91.83H93.15a5.6,5.6,0,0,1,6,6v71.5a5.59,5.59,0,0,1-5.3,5.79c-3,.33-6,.09-9,.16-1.83,0-2.12.3-2.13,2.1s0,3.38,0,5.07c-.05,5-2.77,7.78-7.8,7.8-6.08,0-12.16,0-18.24,0H25.45a12,12,0,0,1-3.11-.34c-3-.79-4.85-3.3-5-6.9-.07-2,0-4,0-6,0-1.42-.31-1.67-1.73-1.7-3.14-.09-6.27.15-9.41-.17A5.49,5.49,0,0,1,.92,78.32C.91,54.41,1,30.49.86,6.58A6.13,6.13,0,0,1,6.67.78C21.08.89,35.49.83,49.91.83ZM50,24.14H6.53c-.44,0-.89,0-1.33,0a1.38,1.38,0,0,0-1.52,1.49c0,.48,0,1,0,1.45V76.73c0,.48,0,1,0,1.45a2.87,2.87,0,0,0,3,3c3,.06,6,0,8.94,0,1.22,0,1.64-.49,1.69-1.71,0-.4,0-.8,0-1.2q0-18.48,0-37c0-2.9,1.06-5.27,3.81-6.6A9.64,9.64,0,0,1,25.43,34c4.87,0,9.74,0,14.62,0a7.73,7.73,0,0,1,1.43.16,1.35,1.35,0,0,1,0,2.65,8.44,8.44,0,0,1-1.67.16c-4.95,0-9.91,0-14.86,0-3.13,0-4.61,1.44-4.64,4.54,0,1.65,0,3.3,0,5V92.08c0,2.69,1.42,4.2,4.05,4.2q25.48,0,51,0c2.88,0,4.28-1.46,4.28-4.36q0-25,0-50c0-3.61-1.49-5-5.12-5l-14.74,0c-1.71,0-2.49-.46-2.49-1.44S58.14,34,59.8,34q7.68,0,15.34,0a7.22,7.22,0,0,1,5.64,2.28,8.18,8.18,0,0,1,1.87,5.83q0,18.36,0,36.72c0,2.21.24,2.45,2.4,2.45H92.3c3.15,0,4-.9,4-4V26.63c0-2.27-.22-2.49-2.48-2.49Zm0-3h44.2c2,0,2.13-.18,2.13-2.15,0-3.82,0-7.65,0-11.47,0-2.94-1-3.93-3.9-3.94h-85c-2.71,0-3.74,1-3.76,3.7,0,3.82,0,7.65,0,11.47,0,2.28.1,2.38,2.4,2.38Z"/><path class="acf204e8-2608-420d-82d3-5b7d5c3bfa8d" d="M82.78,80.3a5.87,5.87,0,0,1-.13-1.5q0-18.36,0-36.72a8.18,8.18,0,0,0-1.87-5.83A7.22,7.22,0,0,0,75.14,34q-7.67,0-15.34,0c-1.66,0-2.46.54-2.46,1.53s.78,1.44,2.49,1.44l14.74,0c3.63,0,5.11,1.38,5.12,5q0,25,0,50c0,2.9-1.4,4.35-4.28,4.36q-25.48,0-51,0c-2.63,0-4.05-1.51-4.05-4.2V46.42c0-1.65-.05-3.3,0-5,0-3.1,1.51-4.54,4.64-4.54,5,0,9.91,0,14.86,0a8.44,8.44,0,0,0,1.67-.16,1.35,1.35,0,0,0,0-2.65A7.73,7.73,0,0,0,40.05,34c-4.88,0-9.75,0-14.62,0a9.64,9.64,0,0,0-4.24.79c-2.75,1.33-3.81,3.7-3.81,6.6q0,18.49,0,37c0,.4,0,.8,0,1.2a2.79,2.79,0,0,1-.19,1v4.26a2.82,2.82,0,0,1,.19,1.17c0,2,0,4,0,6,.12,3.6,1.94,6.11,5,6.9a12,12,0,0,0,3.11.34H56.61c6.08,0,12.16,0,18.24,0,5,0,7.75-2.77,7.8-7.8,0-1.69,0-3.38,0-5.07a4.21,4.21,0,0,1,.12-1.2Z"/><path class="acf204e8-2608-420d-82d3-5b7d5c3bfa8d" d="M50.11,81.07a30.65,30.65,0,0,1-19.48-7.6A22.87,22.87,0,0,1,27,69.64c-1.51-2.14-1.62-3.79,0-5.89A27.29,27.29,0,0,1,41.3,53.67c12.15-3.62,22.35-.19,30.86,8.87,2.71,2.88,2.64,5.26,0,8.18a30.15,30.15,0,0,1-20.8,10.21C50.85,81,50.38,81,50.11,81.07Zm.28-2.93a13.9,13.9,0,0,0,3.27-.33c1.27-.19,2.5-.58,3.75-.88a5,5,0,0,0,2.75-1.85A13.42,13.42,0,0,0,61,59.22a6.3,6.3,0,0,0-3.18-2.84,24.25,24.25,0,0,0-15.63,0,4.7,4.7,0,0,0-2,1.33,13.37,13.37,0,0,0-.8,16.8,5.94,5.94,0,0,0,2.86,2.32A28.12,28.12,0,0,0,50.39,78.14Zm14.76-5.39a14.94,14.94,0,0,0,5.42-4.69,2.34,2.34,0,0,0,0-3,15,15,0,0,0-4-3.83,2.43,2.43,0,0,0-1.43-.67A20.21,20.21,0,0,1,65.15,72.75ZM34.49,72.5a26,26,0,0,1,.29-12.17,17.16,17.16,0,0,0-5.43,4.93,2.18,2.18,0,0,0-.06,2.58A13.48,13.48,0,0,0,34.49,72.5Z"/><path class="acf204e8-2608-420d-82d3-5b7d5c3bfa8d" d="M31.53,90.79H27.67A1.63,1.63,0,0,1,25.85,89q-.06-4,0-8c0-.89.35-1.73,1.47-1.69s1.28.91,1.28,1.81c0,1.57,0,3.14,0,4.71s.48,1.91,2,1.93c1.29,0,2.57,0,3.86,0a7.71,7.71,0,0,1,1.44.12c.77.14,1.4.51,1.36,1.41a1.41,1.41,0,0,1-1.51,1.41c-1.4.06-2.81,0-4.22,0Z"/><path class="acf204e8-2608-420d-82d3-5b7d5c3bfa8d" d="M25.83,48.2c0-1.25,0-2.5,0-3.74.05-1.49.5-2,2-2,2.54,0,5.07,0,7.6,0,.94,0,1.81.27,1.87,1.44,0,.9-.69,1.46-2,1.49-1.49,0-3,0-4.46,0-1.86,0-2.23.38-2.24,2.29v4.46c0,.88-.18,1.66-1.25,1.71s-1.46-.76-1.5-1.66c-.07-1.32,0-2.65,0-4Z"/><path class="acf204e8-2608-420d-82d3-5b7d5c3bfa8d" d="M74,85c0,1.33,0,2.65,0,4a1.52,1.52,0,0,1-1.66,1.76c-2.65,0-5.31,0-8,0-.94,0-1.7-.44-1.7-1.48s.77-1.38,1.63-1.42c1.73-.07,3.46,0,5.19-.07,1.43,0,1.68-.26,1.71-1.7s0-3.06,0-4.58a4.9,4.9,0,0,1,.12-1.08,1.27,1.27,0,0,1,1.49-1.09A1.22,1.22,0,0,1,74,80.69c0,1.44,0,2.89,0,4.34Z"/><path class="acf204e8-2608-420d-82d3-5b7d5c3bfa8d" d="M74,48.3v4c0,.86-.29,1.53-1.28,1.56s-1.39-.62-1.42-1.45c-.08-1.81-.09-3.62-.07-5.42,0-1.13-.49-1.61-1.6-1.6-1.53,0-3,0-4.58,0a3.8,3.8,0,0,1-1.42-.21,1.32,1.32,0,0,1-1-1.25,1.19,1.19,0,0,1,1-1.31,39,39,0,0,1,9.35,0c.74.09,1,.78,1,1.48C74,45.49,74,46.9,74,48.3Z"/><path d="M51.32,35.38c-.09.9-.53,1.47-1.37,1.45A1.34,1.34,0,0,1,50,34.15,1.25,1.25,0,0,1,51.32,35.38Z"/><path d="M28.54,11H41.93c1.66,0,2.51.49,2.56,1.42s-.89,1.55-2.58,1.55H14.54c-1-.09-1.89-.31-2-1.51-.06-.84.75-1.44,2-1.45,4.66,0,9.32,0,14,0Z"/><path d="M65.06,13.8c-.9-.16-1.38-.64-1.3-1.5a1.25,1.25,0,0,1,1.36-1.24,1.31,1.31,0,0,1,1.32,1.43A1.33,1.33,0,0,1,65.06,13.8Z"/><path d="M86.07,11c.8.18,1.41.61,1.34,1.45A1.28,1.28,0,0,1,86,13.76a1.25,1.25,0,0,1-1.26-1.34A1.42,1.42,0,0,1,86.07,11Z"/><path d="M76.93,12.31c-.08.92-.51,1.45-1.36,1.46a1.27,1.27,0,0,1-1.35-1.26,1.28,1.28,0,0,1,1.28-1.45C76.34,11,76.76,11.6,76.93,12.31Z"/><path class="acf204e8-2608-420d-82d3-5b7d5c3bfa8d" d="M50,73a6.36,6.36,0,1,1,6.41-6.33A6.43,6.43,0,0,1,50,73Zm3.42-6.38A3.43,3.43,0,0,0,50,63.06a3.61,3.61,0,0,0-3.51,3.59,3.54,3.54,0,0,0,3.59,3.48A3.38,3.38,0,0,0,53.39,66.57Z"/></g></svg>