<svg id="a127ec44-b5e6-40e7-b38a-b40efb3e58d1" data-name="Layer 1" xmlns="http://www.w3.org/2000/svg" xmlns:xlink="http://www.w3.org/1999/xlink" viewBox="0 0 100 100"><defs><style>.ab9e96e0-085d-449c-8e98-422c63d925d0{fill:none;}.ace7f26c-8836-4253-8a8b-da77bdf8bd2e{clip-path:url(#ada65803-0ca1-402b-bbfe-b071cd17de26);}.e1f6b4a4-ddd0-4b69-ab69-2fbd89100f78{fill:#fc0e3f;}</style><clipPath id="ada65803-0ca1-402b-bbfe-b071cd17de26"><rect class="ab9e96e0-085d-449c-8e98-422c63d925d0" width="100" height="100"/></clipPath></defs><g class="ace7f26c-8836-4253-8a8b-da77bdf8bd2e"><path d="M74.31,50V95.73c0,.48,0,1,0,1.43a1.53,1.53,0,0,1-1.7,1.61l-1.44,0H4.43c-3.06,0-3.19-.13-3.19-3.15V74.76c0-.86,0-1.56,1.21-1.58S4,73.56,4,74.7c0,6.28,0,12.56,0,18.84,0,.44,0,.88,0,1.32A1.13,1.13,0,0,0,5.2,96.05l1.08,0H69.16l1.08,0a1.2,1.2,0,0,0,1.33-1.34c0-.4,0-.8,0-1.2V6.39c0-.44,0-.88,0-1.32a1.06,1.06,0,0,0-1-1.1c-.44,0-.88,0-1.32,0H6.32C4.06,3.93,4,4,4,6.3v61c0,1.9-.17,2.18-1.38,2.15s-1.34-.27-1.34-2.22V4.55c0-.56,0-1.12,0-1.68A1.48,1.48,0,0,1,2.9,1.23l1.2,0H71.53c.32,0,.64,0,1,0,1.29.07,1.7.46,1.8,1.75,0,.48,0,1,0,1.44Z"/><path class="e1f6b4a4-ddd0-4b69-ab69-2fbd89100f78" d="M38.61,7.77c.45.16.91.29,1.34.48,4.42,2,8.82,4,13.24,5.92a2,2,0,0,1,1.31,2.45c-.57,3.06-.86,6.17-1.65,9.19C51.09,32.56,47,37.61,41.34,41.48c-2.9,2-2.29,2.2-5.43.06A27.82,27.82,0,0,1,23.29,20.62c-.15-1.43-.44-2.84-.67-4.26a1.83,1.83,0,0,1,1.25-2.17c4.57-2,9.12-4.06,13.68-6.08A9.42,9.42,0,0,1,38.61,7.77ZM25.5,17.29c.19,1.18.43,2.43.57,3.7C27,28.9,30.89,34.9,37.39,39.33a1.75,1.75,0,0,0,2.2.14C45.06,35.72,49,30.9,50.44,24.26c.46-2.14.75-4.32,1.13-6.48a1.6,1.6,0,0,0-1.06-1.91L39.56,11a1.92,1.92,0,0,0-1.62-.15c-3.9,1.75-7.8,3.48-11.7,5.24A1.11,1.11,0,0,0,25.5,17.29Z"/><path class="e1f6b4a4-ddd0-4b69-ab69-2fbd89100f78" d="M80.67,98.77h-1c-1.56,0-1.71-.26-1.51-1.78.1-.75.47-.88,1.1-.93,2.2-.16,2.3-.22,2.67-2.38q3-17.42,5.93-34.84c1.82-10.71,3.67-21.42,5.46-32.13.2-1.23.87-1.09,1.71-1s1.14.47,1,1.38Q90.11,61.83,84.2,96.56C83.83,98.72,83.7,98.77,80.67,98.77Z"/><path class="e1f6b4a4-ddd0-4b69-ab69-2fbd89100f78" d="M19,92.23c-1.36,0-2.72.06-4.08,0a5.45,5.45,0,0,1-5.48-5.76q0-3.7,0-7.43c0-3.57,2.23-5.78,5.76-5.8,1.84,0,3.68,0,5.52,0,1,0,1.24.46,1.23,1.33s-.21,1.38-1.2,1.37c-1.88,0-3.76,0-5.64,0s-2.94,1-3,3q-.06,3.84,0,7.68a2.66,2.66,0,0,0,2.89,3q3.9.07,7.79,0a2.51,2.51,0,0,0,2.83-2.23c.31-1.3,1.18-1.11,2-1,1,.17.78.93.63,1.6a5.41,5.41,0,0,1-5.13,4.28c-1.4.09-2.8,0-4.2,0Z"/><path class="e1f6b4a4-ddd0-4b69-ab69-2fbd89100f78" d="M9.44,58.15c0-1.32,0-2.64,0-4A5.27,5.27,0,0,1,15,48.74c1.84,0,3.68,0,5.51,0,.91,0,1.43.21,1.42,1.26s-.4,1.33-1.36,1.3c-1.64-.05-3.28,0-4.92,0-2.53,0-3.54,1.07-3.54,3.61,0,2.28,0,4.56,0,6.84s1,3.28,3.19,3.32q3.66.08,7.31,0a2.81,2.81,0,0,0,3.06-2.32c.3-.91,1-1.23,2.08-.93s.7.94.56,1.56a5.32,5.32,0,0,1-5.1,4.25,70.83,70.83,0,0,1-8.62,0,5.3,5.3,0,0,1-5.16-5.13C9.4,61,9.45,59.59,9.44,58.15Z"/><path class="e1f6b4a4-ddd0-4b69-ab69-2fbd89100f78" d="M96,22c-1.43,0-1.73-.36-1.51-1.68.37-2.24.77-4.48,1.15-6.73.23-1.4-.08-1.83-1.57-2.09L79.54,9c-1.6-.28-1.71-.51-1.32-2.05.18-.72.51-.85,1.2-.72,4.48.8,9,1.57,13.45,2.35,1.45.26,2.91.49,4.35.8s1.71.91,1.48,2.26c-.53,3.15-1.08,6.29-1.6,9.45C97,21.79,96.66,22.13,96,22Z"/><path d="M47.58,73.21c3.52,0,7,0,10.54,0,.78,0,1.5,0,1.46,1.08S59.46,76,58.16,76c-7,0-14,0-21.08,0-1,0-1.52-.32-1.52-1.44s.54-1.31,1.49-1.3C40.56,73.23,44.07,73.21,47.58,73.21Z"/><path d="M47.62,48.72H58.17c.7,0,1.45-.07,1.4,1s-.07,1.64-1.42,1.63c-7-.07-14.07,0-21.11,0-1,0-1.47-.21-1.48-1.32s.57-1.29,1.5-1.28C40.58,48.74,44.1,48.72,47.62,48.72Z"/><path class="e1f6b4a4-ddd0-4b69-ab69-2fbd89100f78" d="M30.84,75.6a1.47,1.47,0,0,1-.47,1c-2.82,3.3-5.64,6.62-8.49,9.91-.9,1-1.57,1-2.55.09-1.24-1.18-2.42-2.44-3.66-3.62-.65-.62-.4-1.1.09-1.62s1-1,1.71-.31a13.93,13.93,0,0,1,1.41,1.46c1.2,1.46,1.9,1.39,3.12-.09,2.11-2.56,4.27-5.07,6.42-7.59.29-.34.57-.89,1.16-.54A2.35,2.35,0,0,1,30.84,75.6Z"/><path class="e1f6b4a4-ddd0-4b69-ab69-2fbd89100f78" d="M30.89,51.06a1.56,1.56,0,0,1-.51,1c-2.75,3.23-5.48,6.45-8.25,9.66-1.19,1.39-1.7,1.38-3,.08-1.1-1.1-2.18-2.23-3.31-3.29-.63-.59-.7-1.07-.07-1.7s1.2-.93,1.91-.16c.43.47.88.93,1.29,1.41,1.12,1.32,1.91,1.32,3-.07,2.07-2.69,4.38-5.18,6.56-7.77.27-.32.53-.84,1.06-.53A2.93,2.93,0,0,1,30.89,51.06Z"/><path d="M53.37,81.37h5c.7,0,1.23.22,1.13,1s.24,1.72-1.08,1.71c-3.44,0-6.87,0-10.31,0-1.06,0-1.07-.69-1.08-1.47s.21-1.27,1.14-1.25C49.93,81.4,51.65,81.37,53.37,81.37Z"/><path d="M53.27,59.44c-1.68,0-3.36,0-5,0-1,0-1.18-.51-1.17-1.35s.19-1.25,1.13-1.24c3.4,0,6.79,0,10.18,0,.66,0,1.27,0,1.14.94-.1.7.25,1.69-1.11,1.64C56.7,59.39,55,59.44,53.27,59.44Z"/><path d="M14.12,10.45c-1.16,0-2.31,0-3.46,0S9.4,10,9.41,9.05,9.6,7.69,10.6,7.7q3.4.06,6.81,0c1,0,1.25.51,1.27,1.42s-.36,1.37-1.34,1.33S15.19,10.45,14.12,10.45Z"/><path d="M39.41,84.08c-.92,0-1.83,0-2.75,0s-1.07-.69-1.09-1.46.22-1.28,1.15-1.26c1.79,0,3.59,0,5.38,0,1,0,1.07.57,1.06,1.33s0,1.39-1,1.38S40.33,84.08,39.41,84.08Z"/><path d="M39.46,56.88c.8,0,1.59,0,2.39,0,1-.07,1.33.29,1.33,1.29s-.35,1.33-1.32,1.3c-1.71-.06-3.42-.05-5.13,0-.92,0-1.17-.41-1.16-1.23s.1-1.42,1.15-1.36S38.55,56.88,39.46,56.88Z"/><path d="M12.31,14.23c.52,0,1,0,1.56,0,1.19-.12,1.51.45,1.47,1.56,0,.88-.34,1.21-1.21,1.18-1.2,0-2.4-.05-3.6,0s-1.09-.74-1.11-1.53.33-1.24,1.22-1.17c.55.05,1.11,0,1.67,0Z"/><path d="M66.34,7.74c1.1-.15,1.45.42,1.45,1.39s-.4,1.34-1.37,1.34S65,10.2,65.06,9.18,65.24,7.58,66.34,7.74Z"/><path d="M58.6,9.11c-.15-1,.23-1.39,1.23-1.41s1.34.46,1.34,1.44-.38,1.32-1.34,1.32S58.44,10.07,58.6,9.11Z"/><path class="e1f6b4a4-ddd0-4b69-ab69-2fbd89100f78" d="M37,30a1.75,1.75,0,0,1-1.27-.59c-1.24-1.24-2.46-2.5-3.73-3.72-.66-.63-.4-1.09.13-1.6s1-1,1.7-.3c.54.53,1.07,1.07,1.62,1.59,1.17,1.09,1.88,1.09,3.08-.09q3.09-3,6.1-6.1c.61-.62,1-1,1.83-.15s.78,1.31,0,2.08c-2.74,2.67-5.43,5.4-8.14,8.11A2.09,2.09,0,0,1,37,30Z"/></g></svg>