<svg id="a662c03b-e4a7-4bd5-a2e6-25b317e26ae4" data-name="Layer 1" xmlns="http://www.w3.org/2000/svg" xmlns:xlink="http://www.w3.org/1999/xlink" viewBox="0 0 100 100"><defs><style>.a789c99a-2994-4d1a-a2f3-d72b0b81e82c{fill:none;}.fb06be0d-a68f-4661-aec2-e44a9a14c285{clip-path:url(#ef37b0da-2fcd-4a03-a86f-76a0de701c4b);}.f2bf0625-b1a5-4c40-8293-fd77a5d349d6{fill:#fc0e3f;}</style><clipPath id="ef37b0da-2fcd-4a03-a86f-76a0de701c4b"><rect class="a789c99a-2994-4d1a-a2f3-d72b0b81e82c" width="100" height="100"/></clipPath></defs><g class="fb06be0d-a68f-4661-aec2-e44a9a14c285"><path d="M62.37,8.53l6.3-2.3,13-4.76A9.57,9.57,0,0,1,84.63.91c1.16-.05,1.6.32,1.58,1.55-.08,3.35,0,6.7,0,10.05V30.63c0,1.94.3,2.24,2.21,2.25,3,0,6,0,9.06,0,.92,0,1.64,0,1.62,1.27s-.67,1.33-1.61,1.33c-10.26,0-20.52,0-30.78,0a6,6,0,0,0-3.78,1.22q-16.55,12-33.12,23.88c-.3.22-.6.44-.89.68-.59.48-.58,1,0,1.41.34.24.69.46,1,.71A9.16,9.16,0,0,1,32.67,75c-.21.44-.6.89-.18,1.36s.91.22,1.39.07a4.76,4.76,0,0,0,3.51-4.47,60,60,0,0,0,.08-8,21.46,21.46,0,0,1,.18-4.45A5.18,5.18,0,0,1,47.93,60c0,4.72.08,9.44,0,14.15C47.81,79.77,43.39,85,37.47,86.56c-2.1.57-2.19.69-2.2,2.9,0,2.77,0,5.55,0,8.32,0,1-.33,1.31-1.3,1.31q-9.55,0-19.11,0c-1,0-1.3-.4-1.3-1.33,0-2.94,0-5.87,0-8.81a2,2,0,0,0-1.78-2.34c-6.88-1.72-11-7-11-14.19,0-4,0-8,0-11.92a4.91,4.91,0,0,1,3-4.85,5.17,5.17,0,0,1,5.6.72,5.39,5.39,0,0,1,1.89,4.41c0,3.52,0,7,0,10.55a5,5,0,0,0,3.72,5.12c.43.12.91.31,1.29-.07s0-.84-.14-1.24c-2.3-5.26-.92-9.63,4-12.61a2.19,2.19,0,0,0,1.21-2.09c0-9.56,0-19.12,0-28.67,0-.21,0-.42,0-.62s0-.74-.41-.82-.49.38-.62.65q-2.41,5.22-4.82,10.48c-.59,1.27-1.17,2.56-1.82,3.8A5.09,5.09,0,0,1,7,47.6a5.07,5.07,0,0,1-2.41-6.84Q8.13,32.84,11.91,25A13.6,13.6,0,0,1,22,17.19c1.9-.4,2-.55.94-2.22a9,9,0,0,1,.42-10.15,9,9,0,0,1,9.39-3.66A9.13,9.13,0,0,1,39.88,8.4a9.06,9.06,0,0,1-.51,5.36,4.48,4.48,0,0,0-.33.93c0,.26-.16.61.14.79s.47-.07.68-.19A10.29,10.29,0,0,0,44.05,11c1.24-2.43,2.44-4.88,3.74-7.28A4.88,4.88,0,0,1,52.7,1a5.29,5.29,0,0,1,4.75,3.94,4.43,4.43,0,0,1-.14,2.92,91.25,91.25,0,0,1-4.75,10.23A18.33,18.33,0,0,1,42.14,26.6c-1.9.64-2.13,1-2.13,2.93s0,3.81,0,5.71a3.39,3.39,0,0,0,1.06,2.55c2,1.93,4.21,3.64,5.16,6.4.28.82.94.64,1.53.23L53,40.66c3.12-2.25,6.25-4.49,9.35-6.77a4.93,4.93,0,0,1,3.1-1c5.37,0,10.75,0,16.13,0,1.8,0,2.19-.39,2.2-2.18q0-6.39,0-12.78c0-1.68-.3-2.06-1.9-2.59L63.75,9.28A2.42,2.42,0,0,1,62.37,8.53ZM24.12,42.75h0v2.73q0,7,0,13.91c0,.44-.12,1,.39,1.21s.87-.1,1.24-.36c.78-.55,1.52-1.15,2.33-1.64a2.8,2.8,0,0,0,1.42-2.68c-.05-4.22,0-8.44,0-12.66,0-2.32,1-3,3.22-2.35a3,3,0,0,1,1.3.93,16.59,16.59,0,0,0,1.91,1.93c1.81,1.38,2.91,3,2.6,5.41-.06.4,0,.86.44,1a1.15,1.15,0,0,0,1.15-.29c.86-.64,1.74-1.26,2.59-1.92a2.47,2.47,0,0,0,.9-3.28,5.87,5.87,0,0,0-1.4-2.18c-1.14-1.13-2.24-2.32-3.43-3.4a3.78,3.78,0,0,1-1.33-3.31,56.52,56.52,0,0,0,0-8.92c-.11-1.67.14-1.88,1.77-2.23a15.74,15.74,0,0,0,10-6.33C51.68,14.89,53.18,10.91,54.8,7A2.44,2.44,0,0,0,53,3.69c-1.3-.35-2.36.21-3.16,1.76-1.18,2.28-2.22,4.63-3.5,6.85a13.27,13.27,0,0,1-12.11,7.1c-2.86,0-5.71,0-8.57,0-5.46.07-9.5,2.33-11.78,7.49-1.75,4-3.66,7.88-5.49,11.82-.51,1.09-1,2.17-1.44,3.29a2.47,2.47,0,0,0,1.35,3.31,2.43,2.43,0,0,0,3.24-1.23,9.1,9.1,0,0,0,.45-.88c2.42-5.17,4.93-10.3,7.14-15.57a5.41,5.41,0,0,1,1.28-2.1,3,3,0,0,1,3.13-.6c1,.38.6,1.34.61,2.06C24.13,32.24,24.12,37.5,24.12,42.75Zm.31,53.76H31c1.4-.05,1.68-.3,1.69-1.69,0-2.19,0-4.38,0-6.58,0-4.12.38-3.38,3.23-4a11.36,11.36,0,0,0,9.45-10.53c.41-4.16.12-8.34.16-12.51a5.47,5.47,0,0,0-.37-1.82,2.57,2.57,0,0,0-4.81.12A7.2,7.2,0,0,0,40,61.84c0,3-.13,6,0,9a7.88,7.88,0,0,1-6.7,8.35A49.74,49.74,0,0,1,16,79.29c-4.83-.79-7.19-3.91-7.15-8.78,0-3.22,0-6.45,0-9.68,0-1.94-1-3-2.69-3s-2.63,1.07-2.64,3c0,4.18,0,8.35,0,12.53a10.66,10.66,0,0,0,2.25,6.45,12.44,12.44,0,0,0,8.7,4.69c1.56.21,1.7.39,1.71,2,0,2.77,0,5.54,0,8.31,0,1.38.3,1.67,1.7,1.68C20.05,96.52,22.24,96.51,24.43,96.51Zm.06-19.16a6.64,6.64,0,1,0-.13-13.28,6.63,6.63,0,0,0-6.52,6.74A6.49,6.49,0,0,0,24.49,77.35Zm6.32-60.54a6.48,6.48,0,0,0,6.61-6.57,6.65,6.65,0,0,0-6.54-6.73,6.92,6.92,0,0,0-6.76,6.61A6.64,6.64,0,0,0,30.81,16.81Zm53-8.41c0-1.07,0-2.15,0-3.22s-.48-1.47-1.51-1.1C78.7,5.33,75.17,6.64,71.64,7.93c-.33.12-.6.29-.58.7s.33.46.59.55c3.53,1.18,7.06,2.37,10.6,3.51,1,.33,1.49-.19,1.51-1.18S83.77,9.44,83.77,8.4ZM32.06,49.51c0,1.4,0,2.8,0,4.2,0,1.23.51,1.5,1.55.92a5.93,5.93,0,0,0,2-7.5,2.49,2.49,0,0,0-.39-.48l-1.83-1.84c-.27-.26-.52-.55-1-.36s-.36.61-.36,1C32.06,46.78,32.06,48.14,32.06,49.51Z"/><path class="f2bf0625-b1a5-4c40-8293-fd77a5d349d6" d="M24.12,59.39q0-7,0-13.91V42.75h0c0-5.25,0-10.51,0-15.76,0-.72.42-1.68-.61-2.06a3,3,0,0,0-3.13.6,5.41,5.41,0,0,0-1.28,2.1C16.87,32.9,14.36,38,11.94,43.2a9.1,9.1,0,0,1-.45.88,2.43,2.43,0,0,1-3.24,1.23A2.47,2.47,0,0,1,6.9,42c.41-1.12.93-2.2,1.44-3.29,1.83-3.94,3.74-7.84,5.49-11.82,2.28-5.16,6.32-7.42,11.78-7.49,2.86,0,5.71,0,8.57,0a13.27,13.27,0,0,0,12.11-7.1c1.28-2.22,2.32-4.57,3.5-6.85.8-1.55,1.86-2.11,3.16-1.76A2.44,2.44,0,0,1,54.8,7c-1.62,3.89-3.12,7.87-5.55,11.35a15.74,15.74,0,0,1-10,6.33c-1.63.35-1.88.56-1.77,2.23a56.52,56.52,0,0,1,0,8.92,3.78,3.78,0,0,0,1.33,3.31c1.19,1.08,2.29,2.27,3.43,3.4a5.87,5.87,0,0,1,1.4,2.18,2.79,2.79,0,0,1,.14,2c.93-.69,1.86-1.38,2.78-2.08a1,1,0,0,1-.29-.45c-.95-2.76-3.19-4.47-5.16-6.4A3.39,3.39,0,0,1,40,35.24c0-1.9,0-3.8,0-5.71s.23-2.29,2.13-2.93a18.33,18.33,0,0,0,10.42-8.53A91.25,91.25,0,0,0,57.31,7.84a4.43,4.43,0,0,0,.14-2.92A5.29,5.29,0,0,0,52.7,1a4.88,4.88,0,0,0-4.91,2.75c-1.3,2.4-2.5,4.85-3.74,7.28a10.29,10.29,0,0,1-4.19,4.28c-.21.12-.44.33-.68.19S39,15,39,14.69a4.48,4.48,0,0,1,.33-.93,9.06,9.06,0,0,0,.51-5.36,9.13,9.13,0,0,0-7.16-7.24,9,9,0,0,0-9.39,3.66A9,9,0,0,0,22.91,15c1,1.67,1,1.82-.94,2.22A13.6,13.6,0,0,0,11.91,25Q8.13,32.85,4.57,40.76A5.07,5.07,0,0,0,7,47.6a5.09,5.09,0,0,0,6.86-2.34c.65-1.24,1.23-2.53,1.82-3.8Q18.08,36.21,20.48,31c.13-.27.17-.75.62-.65s.38.49.41.82,0,.41,0,.62c0,9.55,0,19.11,0,28.67,0,.12,0,.22,0,.33.52,0,1.05,0,1.58-.05a12.09,12.09,0,0,0,1.18-.32A1.56,1.56,0,0,1,24.12,59.39ZM30.88,3.51a6.65,6.65,0,0,1,6.54,6.73,6.48,6.48,0,0,1-6.61,6.57,6.64,6.64,0,0,1-6.69-6.69A6.92,6.92,0,0,1,30.88,3.51Z"/><path class="f2bf0625-b1a5-4c40-8293-fd77a5d349d6" d="M31.13,56c.45-.41.92-.8,1.4-1.17-.3-.13-.45-.5-.46-1.16,0-1.4,0-2.8,0-4.2s0-2.73,0-4.09c0-.36-.08-.77.36-1s.69.1,1,.36l1.83,1.84a2.49,2.49,0,0,1,.39.48,5.92,5.92,0,0,1-.24,5.69l1.36-1L39,50.23c-.48-.2-.5-.65-.44-1,.31-2.38-.79-4-2.6-5.41A16.59,16.59,0,0,1,34,41.84a3,3,0,0,0-1.3-.93c-2.24-.67-3.21,0-3.22,2.35,0,4.22,0,8.44,0,12.66A3,3,0,0,1,29,57.79C29.71,57.22,30.45,56.66,31.13,56Z"/><path class="f2bf0625-b1a5-4c40-8293-fd77a5d349d6" d="M81.87,15.33c1.6.53,1.9.91,1.9,2.59q0,6.39,0,12.78c0,1.42-.27,1.95-1.27,2.11l1.93,0,2.81,0c-.89-.18-1.06-.72-1.06-2.17V12.51c0-3.35-.05-6.7,0-10,0-1.23-.42-1.6-1.58-1.55a9.57,9.57,0,0,0-2.91.56l-13,4.76-6.3,2.3a2.42,2.42,0,0,0,1.38.75ZM71.64,7.93c3.53-1.29,7.06-2.6,10.61-3.85,1-.37,1.47,0,1.51,1.1s0,2.15,0,3.22,0,2.07,0,3.11-.5,1.51-1.51,1.18c-3.54-1.14-7.07-2.33-10.6-3.51-.26-.09-.57-.18-.59-.55S71.31,8.05,71.64,7.93Z"/><path d="M75.3,99.08c-3.1,0-6.2,0-9.3,0-1.08,0-1.42-.32-1.39-1.44.1-2.9,0-5.79,0-8.69,0-1.57-.28-1.91-1.82-2.32-5.7-1.52-9.38-5.05-10.67-10.88A21.46,21.46,0,0,1,51.78,71c0-3.47,0-6.94,0-10.42a5.25,5.25,0,1,1,10.49-.33c.06,3.64,0,7.28,0,10.92A5.18,5.18,0,0,0,66,76.42c.48.14,1,.37,1.39-.07s0-.92-.21-1.35a9.34,9.34,0,0,1,1.71-10.88,9.46,9.46,0,0,1,10.69-1.68,9.25,9.25,0,0,1,4.23,12.1c-.13.3-.31.59-.43.89-.35.86,0,1.29.91,1.12a4.7,4.7,0,0,0,3.41-2.45,6.49,6.49,0,0,0,.78-3.21c0-3.39,0-6.79,0-10.18s2.23-5.64,5.31-5.64A5.42,5.42,0,0,1,99,60.63c0,4.71.36,9.44-.16,14.13-.65,5.91-4.21,9.59-9.68,11.57a6.25,6.25,0,0,1-1.2.32,2,2,0,0,0-1.79,2.27c0,2.89,0,5.78,0,8.67,0,1.11-.31,1.53-1.47,1.51-3.14-.07-6.28,0-9.43,0Zm.11-2.57h6.45c1.59,0,1.89-.31,1.91-1.89,0-2.31,0-4.63,0-6.94,0-2.91-.36-2.77,2.8-3.38a11.56,11.56,0,0,0,9.88-11.87c0-3.64,0-7.28,0-10.92a6.13,6.13,0,0,0-.27-1.95,2.37,2.37,0,0,0-2.53-1.76,2.29,2.29,0,0,0-2.37,1.79,6.69,6.69,0,0,0-.2,2.09c0,3.19,0,6.37,0,9.56a7.69,7.69,0,0,1-6.47,7.92,31.32,31.32,0,0,1-3.17.54,62.64,62.64,0,0,1-13.48-.21c-5.25-.56-8.45-3.95-8.15-9.18.19-3.27-.06-6.52-.06-9.78a2.56,2.56,0,0,0-3.2-2.69c-1.27.21-2.12,1.38-2.13,3.09,0,4-.11,8,0,12a11.23,11.23,0,0,0,7,10.53,14.32,14.32,0,0,0,4.32,1.06,1.42,1.42,0,0,1,1.44,1.75c-.27,2.8-.09,5.62-.11,8.43,0,1.45.33,1.76,1.75,1.77C71,96.52,73.21,96.51,75.41,96.51Zm-.1-19.15a6.6,6.6,0,0,0,6.76-6.61,6.65,6.65,0,0,0-13.3-.08A6.57,6.57,0,0,0,75.31,77.36Z"/><path d="M70.26,40.41c.17,1.06-.35,1.32-1.27,1.33s-1.27-.46-1.28-1.36.42-1.23,1.28-1.23S70.46,39.43,70.26,40.41Z"/><path d="M76.69,40.43c.13.94-.28,1.33-1.25,1.31s-1.33-.19-1.32-1.16.2-1.43,1.22-1.42C76.21,39.16,76.8,39.39,76.69,40.43Z"/><path d="M81.83,41.7c-1.09.16-1.29-.41-1.3-1.3s.53-1.23,1.39-1.24,1.22.46,1.2,1.31S82.78,41.9,81.83,41.7Z"/></g></svg>