<svg id="bd1c0189-8025-42d8-a925-caf4e2b49b62" data-name="Layer 1" xmlns="http://www.w3.org/2000/svg" xmlns:xlink="http://www.w3.org/1999/xlink" viewBox="0 0 100 100"><defs><style>.a022a1c2-a382-497b-bf39-7bd2a6673653{fill:none;}.b9c114d9-86db-49dd-86ad-30b80a65d6cd{clip-path:url(#e6e1c820-7992-478d-8f1e-dc8349fefaf6);}.afc1dde2-a7e4-494f-b769-9a085968e4fb{fill:#fc0e3f;}</style><clipPath id="e6e1c820-7992-478d-8f1e-dc8349fefaf6"><rect class="a022a1c2-a382-497b-bf39-7bd2a6673653" width="100" height="100"/></clipPath></defs><g class="b9c114d9-86db-49dd-86ad-30b80a65d6cd"><path d="M43.84,81.32c3.74,0,7.49,0,11.24,0a4.73,4.73,0,0,1,3.59,1.49c3.22,3.29,6.49,6.53,9.75,9.78.45.45.87,1.12,1.62.79s.52-1.11.53-1.74c0-2.81,0-5.62,0-8.43,0-1.79.33-2.2,2-2.68a34.17,34.17,0,0,0,13-6.51c5.94-4.94,9.11-11.43,10.6-18.88C99.56,38.49,87.41,21.75,70.54,19a37.61,37.61,0,0,0-6.09-.39,11,11,0,0,1-1.81-.16A1.24,1.24,0,0,1,61.53,17a1.26,1.26,0,0,1,1.11-1.26,12.91,12.91,0,0,1,3.77-.16c17.46.95,30.36,13.38,32.74,29C101,57,97,67.51,87.68,75.89A32.81,32.81,0,0,1,75.5,82.67c-1.69.53-2.15,1-2.07,2.82.17,3.66.15,7.33.14,11a9.33,9.33,0,0,1-.16,1.82c-.27,1.31-1.26,1.67-2.36.87a8.39,8.39,0,0,1-1-.91c-4.21-4.2-8.43-8.39-12.6-12.62a4.09,4.09,0,0,0-3.13-1.32c-6.35.05-12.71.08-19.06,0-10.29-.11-19.11-3.76-26-11.42A33.25,33.25,0,0,1,.41,50.6,33.85,33.85,0,0,1,3.6,35.34a15.35,15.35,0,0,1,1-1.84,1.38,1.38,0,0,1,2-.64c.81.45.75,1.18.45,1.92S6.43,36,6.14,36.67a31.33,31.33,0,0,0,6.23,35.46,30.15,30.15,0,0,0,21.69,9.18C37.32,81.34,40.58,81.32,43.84,81.32Z"/><path class="afc1dde2-a7e4-494f-b769-9a085968e4fb" d="M18.6,29.08c-1.58,0-3.17,0-4.76,0-2-.08-2.88-1-2.89-3,0-3.94-.09-7.9.05-11.84C11.15,9.78,12.5,5.8,16.19,3A13,13,0,0,1,23.59.46c1.24-.08,1.83.46,1.88,1.7.07,1.75,0,3.5,0,5.25,0,1.12-.73,1.54-1.69,1.76a4.27,4.27,0,0,0-3.55,3.43c-.26,1.17.14,1.7,1.33,1.76.77,0,1.55,0,2.32.06,1.89.22,2.71,1.05,2.75,2.94q.11,4.39,0,8.79c-.05,1.92-1,2.78-2.91,2.92H18.6Zm-4.84-9.9c0,2.06,0,3.69,0,5.31,0,1.05.45,1.6,1.53,1.6q3.42,0,6.83,0a1.36,1.36,0,0,0,1.57-1.56q0-2.8,0-5.61c0-1.07-.49-1.57-1.56-1.56s-2.28,0-3.42-.06a1.56,1.56,0,0,1-1.65-1.81c0-3.72.93-6.93,4.63-8.71a1.63,1.63,0,0,0,.74-2.38c-.48-1-1.24-.71-2-.45C16.88,5.17,15,7.81,14.28,11.36A34.59,34.59,0,0,0,13.76,19.18Z"/><path class="afc1dde2-a7e4-494f-b769-9a085968e4fb" d="M31,19.45c.11-2.54-.24-5.59.46-8.61,1.4-6,5.22-9.55,11.31-10.37,2.12-.28,2.77.27,2.78,2.4,0,1.42,0,2.85,0,4.27a1.79,1.79,0,0,1-1.65,2,4.23,4.23,0,0,0-3.57,3.4c-.29,1.13.14,1.72,1.31,1.78.73,0,1.46,0,2.19,0,1.75.12,2.69.88,2.81,2.61a68.45,68.45,0,0,1,0,9.5A2.44,2.44,0,0,1,43.88,29c-3.37.08-6.75.1-10.12,0C31.81,29,31,28,31,26.05S31,22,31,19.45Zm2.86.2v4.77c0,1.06.46,1.68,1.61,1.68q3.36,0,6.72,0c1.08,0,1.56-.52,1.55-1.58,0-1.79,0-3.58,0-5.37,0-1.43-.38-1.75-1.86-1.78-1.09,0-2.2,0-3.29-.1a1.41,1.41,0,0,1-1.47-1.47c0-3.78.75-7.15,4.58-9a1.94,1.94,0,0,0,.51-.33,1.77,1.77,0,0,0,.32-2.24c-.36-.78-1.06-.61-1.7-.41a8.92,8.92,0,0,0-6.26,6.59C33.69,13.46,33.82,16.56,33.83,19.65Z"/><path class="afc1dde2-a7e4-494f-b769-9a085968e4fb" d="M50.05,35.14H72.77a3.91,3.91,0,0,1,1.79.24,1.32,1.32,0,0,1,.8,1.26,1.24,1.24,0,0,1-.84,1.23,4.3,4.3,0,0,1-1.67.26q-22.84,0-45.68,0a5,5,0,0,1-1.68-.23,1.34,1.34,0,0,1-1-1.26,1.36,1.36,0,0,1,1-1.35,4.4,4.4,0,0,1,1.57-.15Z"/><path class="afc1dde2-a7e4-494f-b769-9a085968e4fb" d="M50,56.11h22.6a11.87,11.87,0,0,1,1.46,0c.74.1,1.32.43,1.35,1.3s-.55,1.3-1.34,1.44a5.32,5.32,0,0,1-1,.06H26.9c-1.63,0-2.41-.5-2.43-1.45s.77-1.4,2.43-1.4Z"/><path class="afc1dde2-a7e4-494f-b769-9a085968e4fb" d="M50,48.46H26.93c-1.69,0-2.42-.42-2.44-1.38s.78-1.47,2.4-1.47H73a6,6,0,0,1,.85,0c.84.12,1.5.45,1.46,1.45s-.67,1.33-1.54,1.35c-1.43,0-2.85,0-4.28,0Z"/><path class="afc1dde2-a7e4-494f-b769-9a085968e4fb" d="M61.11,69.44H49.51c-1.75,0-2.5-.48-2.47-1.51s.8-1.47,2.42-1.47q11.77,0,23.57,0a5.4,5.4,0,0,1,1.32.19,1.26,1.26,0,0,1,1,1.22,1.33,1.33,0,0,1-1,1.39,4,4,0,0,1-1.57.18Z"/><path class="afc1dde2-a7e4-494f-b769-9a085968e4fb" d="M38.7,68c-.12.85-.61,1.4-1.43,1.36a1.36,1.36,0,0,1,0-2.71A1.33,1.33,0,0,1,38.7,68Z"/></g></svg>