<svg id="ed29fda1-5c22-4680-9dd2-968c6c213279" data-name="Layer 1" xmlns="http://www.w3.org/2000/svg" xmlns:xlink="http://www.w3.org/1999/xlink" viewBox="0 0 100 100"><defs><style>.a830eb75-e52e-45a1-8136-f7a41364ce07{fill:none;}.b0d8795d-08ba-41bc-b820-ebfd4ffaea41{clip-path:url(#b5f5cf98-30d3-449b-8090-0f1668e6d045);}.aa382c95-383c-4158-9c34-3b5724421cde{fill:#fc0e3f;}</style><clipPath id="b5f5cf98-30d3-449b-8090-0f1668e6d045"><rect class="a830eb75-e52e-45a1-8136-f7a41364ce07" width="100" height="100"/></clipPath></defs><g class="b0d8795d-08ba-41bc-b820-ebfd4ffaea41"><path d="M96.39,26.33a2.93,2.93,0,0,1,0-3c.85-1.61,1.65-3.25,2.45-4.89.54-1.11.46-1.27-.74-1.28-3.25,0-6.49,0-9.74,0a1.77,1.77,0,0,0-1.79,1.16c-.6,1.29-1.25,2.55-1.88,3.82a1.92,1.92,0,0,1-1.74,1.32q-4.07,0-8.15,0a1.39,1.39,0,0,1-1.51-1.29c-.08-.44-.14-.88-.23-1.31C71.12,11.21,65.39,4.84,56,2.34s-17.7.42-24.08,8a21.41,21.41,0,0,0-4.83,11.13c-.24,1.73-.6,2-2.37,2-1.38,0-2.76,0-4.13,0-2.09.12-2.92,1-3.28,3.05a10.32,10.32,0,0,0,.05,3.14,2.75,2.75,0,0,0,2.43,2.65,3.3,3.3,0,0,1,2.33,1.57c1.36,2.07,2.64,4.18,3.84,6.35a83.86,83.86,0,0,1,9.82,31.38,1.2,1.2,0,0,1-1,1.46A2.28,2.28,0,0,1,32.33,71a16.32,16.32,0,0,0,0-3.63,10.69,10.69,0,0,0-10.94-9.14,10.25,10.25,0,0,0-9.6,6.74c-1.71,4.1-.82,7.89,2,11.2a1.92,1.92,0,0,1,.23,2.68c-2,3.14-4,6.31-5.94,9.5a2.67,2.67,0,0,1-2.44,1.44,4.36,4.36,0,0,0-4,5.26,4.42,4.42,0,0,0,5.56,3.36A4.32,4.32,0,0,0,10,92.46a2.39,2.39,0,0,1,0-2.32Q13.24,85,16.46,79.82a1.52,1.52,0,0,1,1.95-.73A10.33,10.33,0,0,0,30,75.65a2,2,0,0,1,2.8-.43c1.1.53.95,1.37.75,2.27a18.31,18.31,0,0,0-.42,5.91A17.05,17.05,0,0,0,46,98a16.77,16.77,0,0,0,18.16-6.85,16.47,16.47,0,0,0,1.1-17.42,1.59,1.59,0,0,1-.27-.37A7.62,7.62,0,0,1,64,70.05a2.61,2.61,0,0,1,0-.4.67.67,0,0,1-.11-.36,7.56,7.56,0,0,1,.38-1.88,2.86,2.86,0,0,1,.07-.28c.13-.51.23-1,.32-1.53s.27-1.18.39-1.77a8.23,8.23,0,0,1,.25-1.64.63.63,0,0,1,1.16-.39l.09.19,0,.07a11.5,11.5,0,0,1,.73,2.31,1,1,0,0,1,.15.24l.06.16,0,.07c0,.1.09.2.13.3l.22.49A9.12,9.12,0,0,1,69.11,67c.09.11.17.23.25.35l.42.59a.47.47,0,0,1,.08.33,3.77,3.77,0,0,0,.37.65l.06.1,0,0A16.54,16.54,0,0,0,81.8,73.31a17,17,0,1,0-6.16-33c-.32.12-.71.46-1,.16s0-.78.16-1.12a67.24,67.24,0,0,1,3.68-6,2.45,2.45,0,0,1,1.61-1C82.25,31.83,82.89,31,83,28.8c0-.45,0-.9,0-1.34s-.08-1,.51-1.11.76.38,1,.77c.66,1.3,1.39,2.58,1.94,3.93A2.19,2.19,0,0,0,89,32.54a43,43,0,0,1,5-.15h3.89c1.49,0,1.54-.08.9-1.38C98,29.44,97.23,27.86,96.39,26.33ZM5.88,95.83A1.54,1.54,0,0,1,4.31,94,1.72,1.72,0,0,1,6,92.3a1.93,1.93,0,0,1,1.79,1.94A1.79,1.79,0,0,1,5.88,95.83Zm15.8-18.77a8.1,8.1,0,0,1-8.07-8.16,8,8,0,0,1,8.14-8.06,7.91,7.91,0,0,1,8.08,8.07A8,8,0,0,1,21.68,77.06ZM46.93,4.34C58.46,2.71,68.46,10,70.58,21.57c.13.73.3,1.5-.65,1.84a2.3,2.3,0,0,1-2.87-.88,7.24,7.24,0,0,1-.35-1.29A17.13,17.13,0,0,0,51.19,7.82C41.69,7,33.8,15.19,33.12,23.14a17,17,0,0,0,33.65,5.11c.38-2.06.75-2.31,2.59-2.21,1,.06,1.46.54,1.3,1.57a20.47,20.47,0,0,1-6.51,12.47,20.06,20.06,0,0,1-14.47,5.36A20.16,20.16,0,0,1,29.52,27.29,20.52,20.52,0,0,1,46.93,4.34Zm3,21.71c.56,0,1.13,0,1.7,0h0c.65,0,1.3,0,1.94,0,.93.07,1.2.61.74,1.4a5.07,5.07,0,0,1-6,2,5.15,5.15,0,0,1-3.28-5.15,4.94,4.94,0,0,1,4.55-4.45A4.79,4.79,0,0,1,54,21.76a1.22,1.22,0,0,1,.3,1.24c-.21.54-.71.45-1.15.46-1.09,0-2.18,0-3.28,0s-1.1.55-1.1,1.33S49,26.13,50,26.05Zm-.81-8.75a7.58,7.58,0,0,0-1.3,14.76A7.45,7.45,0,0,0,57,27.83,2.43,2.43,0,0,1,59.76,26c1,.09,2,0,3,0,1.4,0,1.71.44,1.41,1.82a14.43,14.43,0,1,1-.06-6.42c.37,1.62.08,2-1.54,2h-1.8c-2.06.49-3.43-.6-4.44-2.73C55.18,18.22,52,16.85,49.14,17.3ZM22,29.82c-2,0-2.76-1.23-2-3.09A1,1,0,0,1,21,26.06c1.5,0,3,0,4.5,0,1.32,0,1.32.71,1.52,2.7.11,1.1-.76,1.05-1.5,1.05H22ZM64.51,81.46A14.06,14.06,0,0,1,50.09,95.85a14.36,14.36,0,0,1,0-28.72A14.23,14.23,0,0,1,64.51,81.46ZM38.27,60.85c3.93,0,7.86,0,11.79,0s7.79,0,11.68,0c1.53,0,1.79.35,1.51,1.83s-.57,3.19-.86,4.78c-.23,1.31-.72,1.54-1.76.72a17.06,17.06,0,0,0-10-3.7,16.62,16.62,0,0,0-10.39,3.19c-2,1.37-2.14,1.28-2.57-1.14-.25-1.35-.52-2.7-.77-4.06S37,60.85,38.27,60.85ZM62.83,58.1H37.53a2.2,2.2,0,0,1-2.24-2.73c.16-.9.86-.84,1.51-.84h26c1.39,0,1.76.41,1.75,1.85S64.24,58.1,62.83,58.1ZM81.7,41.87A14.42,14.42,0,0,1,96,56.37,14.42,14.42,0,1,1,81.7,41.87Zm-6.66-8c-2.23,3.4-4,7.08-5.94,10.61-1.23,2.18-3,4-3.73,6.51-.26.85-1.11,1-1.93.95H49.57c-4.59,0-9.17,0-13.75,0a2.37,2.37,0,0,1-2.54-1.78,82,82,0,0,0-8-16.09c-.25-.4-.68-.78-.32-1.31s.86-.32,1.34-.33a2.38,2.38,0,0,1,2.42,1.63c2.76,6,7,10.48,13.39,12.67,11.79,4.08,23.76-1,29.14-12.26.62-1.28,1.38-2.2,2.92-2.12C75.27,32.43,75.62,33,75,33.87Zm3.41-4H76.63c-.77,0-1.54,0-2.31,0a1.1,1.1,0,0,1-.91-.25c-.68-.82-.11-1.71,0-2.55a1.1,1.1,0,0,1,1.22-1h4.49a1,1,0,0,1,1.14,1.13c0,.28,0,.57,0,.85C80.24,29.72,80.14,29.81,78.45,29.82ZM87.57,22a2.88,2.88,0,0,1,3.15-2.29c1,0,2.09.12,3.14.19.84.05,1,.47.76,1.23-.6,1.83-1.24,2.32-3.18,2.32H90.35c-.61,0-1.22,0-1.83,0C87.53,23.43,87.26,23,87.57,22Zm6.32,7.79H91.58v0h-1c-1.92,0-2.66-.61-3.1-2.48-.21-.84.28-1.19.93-1.22a29.53,29.53,0,0,1,4.1,0c1.06.1,2.34,2,2.2,3C94.68,29.66,94.32,29.79,93.89,29.8Z"/><path class="aa382c95-383c-4158-9c34-3b5724421cde" d="M67.42,26H64.19c0,.12-.07.24-.11.36.27.27.3.73.13,1.48a14.43,14.43,0,1,1-.06-6.42c.06.26.09.48.12.68a4.86,4.86,0,0,1,.28,1.31h2.71c0-.25-.08-.5-.11-.75a.83.83,0,0,1-.09-.16,7.24,7.24,0,0,1-.35-1.29A17.13,17.13,0,0,0,51.19,7.82C41.69,7,33.8,15.19,33.12,23.14a17,17,0,0,0,33.65,5.11,3.37,3.37,0,0,1,.71-1.87A2,2,0,0,1,67.42,26Z"/><path class="aa382c95-383c-4158-9c34-3b5724421cde" d="M73.82,26h-3c0,.1,0,.2-.06.3a1.26,1.26,0,0,1-.13.34,1.65,1.65,0,0,1,.07.94,20.47,20.47,0,0,1-6.51,12.47,20.06,20.06,0,0,1-14.47,5.36A20.16,20.16,0,0,1,29.52,27.29,20.52,20.52,0,0,1,46.93,4.34C58.46,2.71,68.46,10,70.58,21.57a2.34,2.34,0,0,1,0,1.31l.09.56h3c0-.13,0-.25,0-.38a1.6,1.6,0,0,1-.44-.9c-.08-.44-.14-.88-.23-1.31C71.12,11.21,65.39,4.84,56,2.34s-17.7.42-24.08,8a21.41,21.41,0,0,0-4.83,11.13,2.45,2.45,0,0,1-.65,1.68c.14,1.89.52,3.71.72,5.75.33,1.38.63,2.79.85,4.17a3.18,3.18,0,0,1,.75,1c2.76,6,7,10.48,13.39,12.67,11.79,4.08,23.76-1,29.14-12.26a8,8,0,0,1,.4-.72,13.34,13.34,0,0,1,.82-2.48A4.11,4.11,0,0,0,73,29a2.19,2.19,0,0,1,.18-1.11,5.73,5.73,0,0,0,.18-.88,1,1,0,0,1,.46-.75C73.83,26.18,73.82,26.1,73.82,26Z"/><path class="aa382c95-383c-4158-9c34-3b5724421cde" d="M57.8,26H54.4c0,.08-.1.17-.16.25.35.23.4.65.09,1.19a5.07,5.07,0,0,1-6,2,5.15,5.15,0,0,1-3.28-5.15,4.94,4.94,0,0,1,4.55-4.45A4.79,4.79,0,0,1,54,21.76a1.22,1.22,0,0,1,.3,1.24h0a3.55,3.55,0,0,1,.21.44H57.8c0-.18,0-.36,0-.54s0-.12,0-.17a6.22,6.22,0,0,1-1.4-2c-1.19-2.51-4.38-3.88-7.23-3.43a7.58,7.58,0,0,0-1.3,14.76A7.45,7.45,0,0,0,57,27.83a3.42,3.42,0,0,1,.81-1.24C57.8,26.4,57.8,26.21,57.8,26Z"/><path class="aa382c95-383c-4158-9c34-3b5724421cde" d="M65.21,73.75a1.59,1.59,0,0,1-.27-.37,9.15,9.15,0,0,1-.73-1.88c-.17-.23-.35-.44-.57-.7s-.28-.31-.41-.48l-.09-.11-.1-.13-.16-.18a5.39,5.39,0,0,0-.43-.39l-.12-.1,0,0-.22-.16c-.33-.24-.66-.48-1-.74a4.14,4.14,0,0,1-.46-.31,17.06,17.06,0,0,0-10-3.7,16.62,16.62,0,0,0-10.39,3.19c-.39.27-.69.46-1,.61a6.06,6.06,0,0,1-.78.83,3.13,3.13,0,0,0-.26.25l-.12.13c-.25.28-.45.56-.69.88a11.15,11.15,0,0,1-1.25,1.4,4.18,4.18,0,0,1-.5.53,1.13,1.13,0,0,1-.91.81A2.28,2.28,0,0,1,32.33,71a16.32,16.32,0,0,0,0-3.63,10.69,10.69,0,0,0-10.94-9.14,10.25,10.25,0,0,0-9.6,6.74c-1.71,4.1-.82,7.89,2,11.2a1.92,1.92,0,0,1,.23,2.68c-2,3.14-4,6.31-5.94,9.5a2.67,2.67,0,0,1-2.44,1.44,4.36,4.36,0,0,0-4,5.26,4.42,4.42,0,0,0,5.56,3.36A4.32,4.32,0,0,0,10,92.46a2.39,2.39,0,0,1,0-2.32Q13.24,85,16.46,79.82a1.52,1.52,0,0,1,1.95-.73A10.33,10.33,0,0,0,30,75.65a2,2,0,0,1,2.8-.43c1.1.53.95,1.37.75,2.27a18.31,18.31,0,0,0-.42,5.91A17.05,17.05,0,0,0,46,98a16.77,16.77,0,0,0,18.16-6.85A16.47,16.47,0,0,0,65.21,73.75ZM5.88,95.83A1.54,1.54,0,0,1,4.31,94,1.72,1.72,0,0,1,6,92.3a1.93,1.93,0,0,1,1.79,1.94A1.79,1.79,0,0,1,5.88,95.83Zm15.8-18.77a8.1,8.1,0,0,1-8.07-8.16,8,8,0,0,1,8.14-8.06,7.91,7.91,0,0,1,8.08,8.07A8,8,0,0,1,21.68,77.06ZM50.09,95.85a14.36,14.36,0,0,1,0-28.72A14.23,14.23,0,0,1,64.51,81.46,14.06,14.06,0,0,1,50.09,95.85Z"/><path class="aa382c95-383c-4158-9c34-3b5724421cde" d="M98.23,52.6A17.08,17.08,0,0,0,75.64,40.34c-.17.06-.35.18-.53.24l0,0a8.9,8.9,0,0,1-1.9.83l-1.33.86c-.31.21-.63.42-.93.64-.09.06-.32.16-.37.26.26-.2.31-.23.13-.08l-.18.18A14.73,14.73,0,0,0,69,44.65s0,0,0,.05a17.89,17.89,0,0,0-1,1.62c-.39.57-.78,1.14-1.15,1.72a10.19,10.19,0,0,0-1.61,3.61,23.72,23.72,0,0,0,.71,10.46A16.35,16.35,0,0,0,78.37,73a17.92,17.92,0,0,0,3.43.29A17,17,0,0,0,98.23,52.6ZM81.59,70.7a14.42,14.42,0,1,1,.11-28.83A14.42,14.42,0,0,1,96,56.37,14.24,14.24,0,0,1,81.59,70.7Z"/><path class="aa382c95-383c-4158-9c34-3b5724421cde" d="M10.8,31.93V12.21c0-.77-.13-1.55,1-1.74.58-.1.51-.68.22-1.08-.75-1-1.51-2-2.32-3a.85.85,0,0,0-1.45,0c-.79,1-1.55,2-2.32,3-.41.54-.44,1,.36,1.11s.9.59.9,1.21q0,6.63,0,13.27c0,1.07-.6,1.24-1.5,1.25S4.48,25.9,4.49,25c0-3.45,0-6.89,0-10.34,0-1.8-.18-1.94-1.94-2-.57,0-1.38.34-1.67-.28s.49-.94.83-1.38c2.14-2.8,4.32-5.58,6.45-8.39.56-.74.91-1,1.6-.08,2.29,3,4.66,6,7,9.05.18.24.53.48.36.84s-.56.24-.87.25c-2.89.13-2.89.13-2.89,3.07q0,18,0,36c0,.86,0,1.6-1.21,1.6-1.1,0-1.38-.43-1.38-1.45C10.82,45.24,10.8,38.58,10.8,31.93Z"/><path class="aa382c95-383c-4158-9c34-3b5724421cde" d="M7.21,41.42c0,3.48,0,7,0,10.45,0,1-.24,1.48-1.37,1.47s-1.37-.43-1.36-1.46c0-6.89,0-13.78,0-20.66,0-.78-.18-1.69,1.13-1.7s1.59.08,1.6,1.56Z"/><path d="M54.53,86.69a7.77,7.77,0,0,0,0,.84c.16,1.18-.25,1.69-1.54,1.59s-1.72.33-1.64,1.78c.07,1.25-.53,1.43-1.54,1.38-.73,0-1.08-.36-1-1a3.11,3.11,0,0,0-1.65-3.34,3.71,3.71,0,0,1-1.5-2.82c-.23-1.47.17-1.84,1.62-1.7.69.07.87.42.92,1a2,2,0,0,0,1.35,2c1.13.38,2,.16,2.33-.62A2.17,2.17,0,0,0,50.71,83a3.78,3.78,0,0,0-.94-.22,4.55,4.55,0,0,1-4.13-4.24c-.09-1.21,0-2.44,0-3.66,0-.74.33-1,1.07-.92,1.84.16,2.25-.26,2.15-2.19,0-.74.25-1.09,1-1.07s1.6-.21,1.51.87a3.82,3.82,0,0,0,1.93,3.74,3.76,3.76,0,0,1,1.31,3c.08,1-.4,1.34-1.32,1.42s-1.25-.33-1.3-1.25a2.13,2.13,0,0,0-2.75-2,1.16,1.16,0,0,0-.93,1A2.13,2.13,0,0,0,49,79.74a2.86,2.86,0,0,0,1.48.48,4.37,4.37,0,0,1,4,3.92A6.87,6.87,0,0,1,54.53,86.69Z"/><path d="M84.67,54.52c-.82.14-1.36-.14-1.28-1.15a1.6,1.6,0,0,0-.07-.61,2,2,0,0,0-2.25-1.43c-.69,0-1.15.25-1.25,1-.15,1.28.25,2.13,1.24,2.48a5.77,5.77,0,0,0,.72.16c3,.62,4.27,2.11,4.35,5.18,0,.89,0,1.78,0,2.68s-.33,1.17-1.2,1.08c-1.54-.15-2,.23-1.93,1.83,0,1-.37,1.37-1.35,1.38s-1.48-.35-1.37-1.35a2.89,2.89,0,0,0-1.43-3,4.28,4.28,0,0,1-1.74-3.35c-.07-.7,0-1.4,1-1.33.73.05,1.74-.19,1.77,1.09,0,1.1.46,1.91,1.68,2,.74,0,1.61.27,1.86-.84a2.12,2.12,0,0,0-1.24-2.61c-.35-.1-.72-.11-1.08-.18a4.64,4.64,0,0,1-3.88-5.21A21.84,21.84,0,0,0,77.24,50c0-.79.21-1.17,1.1-1.17,1.81,0,2.14-.37,2-2.16-.07-.81.25-1.15,1-1.15s1.69-.15,1.61.94a3.9,3.9,0,0,0,1.85,3.78C85.86,51,86,52.33,86.1,53.6,86.14,54.56,85.42,54.55,84.67,54.52Z"/><path d="M21.71,73.29a4.32,4.32,0,0,1-4.37-4.41,4.59,4.59,0,0,1,4.43-4.46A4.66,4.66,0,0,1,26.17,69,4.34,4.34,0,0,1,21.71,73.29Zm1.75-4.39a1.61,1.61,0,0,0-1.72-1.74A1.73,1.73,0,0,0,20,69a1.76,1.76,0,0,0,1.83,1.69A1.63,1.63,0,0,0,23.46,68.9Z"/></g></svg>